<mxfile host="app.diagrams.net" agent="Mozilla/5.0 (Macintosh; Intel Mac OS X 10_15_7) AppleWebKit/537.36 (KHTML, like Gecko) Chrome/138.0.0.0 Safari/537.36" version="28.0.7">
  <diagram name="Page-1" id="bd83a815-5ea8-2e97-e5ec-87c9f400f2fa">
    <mxGraphModel dx="1735" dy="1331" grid="1" gridSize="10" guides="1" tooltips="1" connect="1" arrows="1" fold="1" page="1" pageScale="1" pageWidth="1169" pageHeight="826" background="light-dark(#fffafa, #121212)" math="0" shadow="0">
      <root>
        <mxCell id="0" style=";html=1;" />
        <mxCell id="1" style=";html=1;" parent="0" />
        <mxCell id="NYJ3iIu9TDfo5SahPkcP-7" value="One Drive" style="html=1;whiteSpace=wrap;" vertex="1" parent="1">
          <mxGeometry x="130" y="100" width="320" height="50" as="geometry" />
        </mxCell>
        <mxCell id="NYJ3iIu9TDfo5SahPkcP-29" value="" style="shape=image;verticalLabelPosition=bottom;labelBackgroundColor=default;verticalAlign=top;aspect=fixed;imageAspect=0;image=data:image/png,iVBORw0KGgoAAAANSUhEUgAAAgoAAAKmCAYAAAAsH7bAAAABYGlDQ1BJQ0MgUHJvZmlsZQAAKJFjYGDiSSwoyGFhYGDIzSspCnJ3UoiIjFJgf87AwyDMwMdgxcCamFxc4BgQ4ANUwgCjUcG3awyMIPqyLsise2u1VBf9aqgNrKmc3llWaIGpHgVwpaQWJwPpP0BsklxQVMLAwGgAZAeUlxSA2A1AtkgR0FFA9hQQOx3CXgFiJ0HYe8BqQoKcgewLQLZAckZiCpD9AMjWSUIST0di5+aUJkPdAHI9T2peaDCQlgBiGQYXBlcGHyBUYAhlMGIwB2JjhkAGVxx6TMB6nBnyGQoYKhmKGDIZ0hkyGEqAuh2BIgUMOQypQLYnQx5DMoMegw6QbcRgADITFNboYYgQa2liYLD5D2ScR4j5AvGmyUCrqxFiqiFA7+QxMBx9UpBYlAgPWcZvLMVpxkYQNvd2BgbWaf//fw5nYGDXZGD4e/3//9/b////u4yBgfkWA8OBbwCdPGSXGgpYvwAAAIplWElmTU0AKgAAAAgABAEaAAUAAAABAAAAPgEbAAUAAAABAAAARgEoAAMAAAABAAIAAIdpAAQAAAABAAAATgAAAAAAAACQAAAAAQAAAJAAAAABAAOShgAHAAAAEgAAAHigAgAEAAAAAQAAAgqgAwAEAAAAAQAAAqYAAAAAQVNDSUkAAABTY3JlZW5zaG90n3Z/gAAAAAlwSFlzAAAWJQAAFiUBSVIk8AAAAdZpVFh0WE1MOmNvbS5hZG9iZS54bXAAAAAAADx4OnhtcG1ldGEgeG1sbnM6eD0iYWRvYmU6bnM6bWV0YS8iIHg6eG1wdGs9IlhNUCBDb3JlIDYuMC4wIj4KICAgPHJkZjpSREYgeG1sbnM6cmRmPSJodHRwOi8vd3d3LnczLm9yZy8xOTk5LzAyLzIyLXJkZi1zeW50YXgtbnMjIj4KICAgICAgPHJkZjpEZXNjcmlwdGlvbiByZGY6YWJvdXQ9IiIKICAgICAgICAgICAgeG1sbnM6ZXhpZj0iaHR0cDovL25zLmFkb2JlLmNvbS9leGlmLzEuMC8iPgogICAgICAgICA8ZXhpZjpQaXhlbFlEaW1lbnNpb24+Njc4PC9leGlmOlBpeGVsWURpbWVuc2lvbj4KICAgICAgICAgPGV4aWY6UGl4ZWxYRGltZW5zaW9uPjUyMjwvZXhpZjpQaXhlbFhEaW1lbnNpb24+CiAgICAgICAgIDxleGlmOlVzZXJDb21tZW50PlNjcmVlbnNob3Q8L2V4aWY6VXNlckNvbW1lbnQ+CiAgICAgIDwvcmRmOkRlc2NyaXB0aW9uPgogICA8L3JkZjpSREY+CjwveDp4bXBtZXRhPgqnq+A2AAAAHGlET1QAAAACAAAAAAAAAVMAAAAoAAABUwAAAVMAAEJ1PwB+/gAAQABJREFUeAHsnQe8FEX2tg8YwAQmFGRXUBQDycCyJlzTqqDCggFFFBEUAcW0LEYUjIiKooAoCOYMi7oCBlh1cVcERRADygJGFAOCAQzw+db+q7++c6fn9oWZuT0zT/1+3u7prq6ueqql3j516nS1FStWrDESBCAAAQhAAAIQSEOgGkIhDRUOQQACEIAABCDgCCAUeBAgAAEIQAACEIgkgFCIRMMJCEAAAhCAAAQQCjwDEIAABCAAAQhEEkAoRKLhBAQgAAEIQAACCAWeAQhAAAIQgAAEIgkgFCLRcAICEIAABCAAAYQCzwAEIAABCEAAApEEEAqRaDgBAQhAAAIQgABCgWcAAhCAAAQgAIFIAgiFSDScgAAEIAABCEAAocAzAAEIQAACEIBAJAGEQiQaTkAAAhCAAAQggFDgGYAABCAAAQhAIJIAQiESDScgAAEIQAACEEAo8AxAAAIQgAAEIBBJAKEQiYYTEIAABCAAAQggFHgGIAABCEAAAhCIJIBQiETDCQhAAAIQgAAEEAo8AxCAAAQgAAEIRBJAKESi4QQEIAABCEAAAggFngEIQAACEIAABCIJIBQi0XACAhCAAAQgAAGEAs8ABCAAAQhAAAKRBBAKkWg4AQEIQAACEIAAQoFnAAIQgAAEIACBSAIIhUg0nIAABCAAAQhAAKHAMwABCEAAAhCAQCQBhEIkGk5AAAIQgAAEIIBQ4BmAAAQgAAEIQCCSAEIhEg0nIAABCEAAAhBAKPAMQAACEIAABCAQSQChEImGExCAAAQgAAEIIBR4BiAAAQhAAAIQiCSAUIhEwwkIQAACEIAABBAKPAMQgAAEIAABCEQSQChEouEEBCAAAQhAAAIIBZ4BCEAAAhCAAAQiCSAUItFwAgIQgAAEIAABhALPAAQgAAEIQAACkQQQCpFoOAEBCEAAAhCAAEKBZwACEIAABCAAgUgCCIVINJyAAAQgAAEIQAChwDMAAQhAAAIQgEAkAYRCJBpOQAACEIAABCCAUOAZgAAEIAABCEAgkgBCIRINJyAAAQhAAAIQQCjwDEAAAhCAAAQgEEkAoRCJhhMQgAAEIAABCCAUeAYgAAEIQAACEIgkgFCIRMMJCEAAAhCAAAQQCjwDEIAABCAAAQhEEkAoRKLhBAQgAAEIQAACCAWeAQhAAAIQgAAEIgkgFCLRcAICEIAABCAAAYQCzwAEIAABCEAAApEEEAqRaDgBAQhAAAIQgABCgWcAAhCAAAQgAIFIAgiFSDScgAAEIAABCEAAocAzAAEIQAACRU9g5syZNnLkSHvttdfy0tZevXqZ/iuGhFAohl6kDRCAAAQgkJFA8+bNM57P1cm7777bWrZsmavi81IuQiEvmLlJJgKrV6+26dOn26effmpt2rSxWrVqlcu+dOlSO/nkk23NmjU2duxY+93vfufyzJkzx84++2zbYost7IEHHrBNN93UHT/vvPPshx9+cPt//etfrXHjxuXK5AAEIFAaBGRJ0H9/+MMf3Ft+1MDtxYT+XVmXFLZe6J5jxoxZl+Kq/NqsC4VJkybZq6++Wq5h1apVs80339z9A7/rrrtakyZNyuXhQHYIjBgxwr744gtXWNu2ba1Vq1ZpC9bA+v7777tz1atXt7POOsu22WabtHlzefCJJ56wgQMHulvstddeNm7cuLS38/l22203u+++++z777+3E044wT7//HO77bbb7E9/+lNw3f77728rVqxwv4tB0QcNYwcCEKg0AS8AKvq3wOdbV6GgCkosnH766a6u2Siv0o3O4gVZFwrXXnutPfzwwxVWUSrrggsuQDBUSKryGTp06GALFixwF1588cV20kknlSvk2WefNb1p+9SzZ0/r06eP/5nX7VVXXWWPPfaYu6csAi+//LKtt956aeugOur8cccdZ5988on9+9//NrXXCw1/EULBk2ALAQjEFQBx88Ulmu3y4t432/mqTCioIZtttpk9+OCD1qBBg2y3q6TLq0goLFq0yE488cTANH/IIYfY0KFDTVafqkgSNRI0soJoGkEiICppCkLtW758ucuy3XbbmSwNm2yySZlLEAplcPADAiVNIO6AHTdfXJjZLi/ufbOdL6dC4c9//rPJwqAkM7HeBKdNm2ZTp04N2tGiRQtnRg4OsLPOBDIJhZUrVzoLg7c47LTTTnb//ffbxhtvvM73XdcC5KugKZCK0n/+8x975ZVXXDY9Y82aNSt3CUKhHBIOQKBkCcQdsOPmiwsy2+XFvW+28+VUKBxxxBE2ZMiQcnW++uqr7dFHH3XHZWKW+bhmzZrl8nFg7QhkEgp6c//HP/7hCq5du7abJqpfv/7a3SjBVyEUEtw5VA0CeSYQd8CuKJ/8DrS8Mu6yx4rKyzOGtb5dlQgFge7evXtQaTnVpXsr9BlWrVplCxcutK+++sq2335708AW583TXx/eLl682JYtW+bul66MX3/91d566y1XfqNGjWK9aX/33Xf22Wef2ZIlS5zHvuooL/zKJpWje8uhsGHDhmvdxiihIHEmkaYkgTZq1KhIR8dw3b/++mvXPvFX3dS+qrRAaOWDWOuZUH123HHHcqyyIRRk4dB0iFZj/Pjjj+6507O3wQYbhPGwDwEIJJxA3AE7Uz6/ckJNjeucmKm8hCMrU70qEQphb1DVRm+4v//978tUTD/kcHf77bebBncNDj5tuOGGdsABB9gll1yS1ktfpvQbbrjBZf/jH/9od911lxsUH3nkEfvyyy/d8S233NKOPPJI+9vf/uYGGYmHK6+80q3Y0DSJkubs5bWqefNU5zqJlylTppjKnDt3rssf/qPlN3p733nnncOH7b333rPjjz8+OKYHbvbs2Xb99dfbO++8E7RTK0Q0baN2VjalEwrz5s2zU045xX755RdXnNjJTyEqffPNNzZ+/Hhn+ZEICidx6dixo/Xt27eMIHrqqafs0ksvDWeN3N96662DKah0/ZXuQtVDnLSqxi99VL4aNWqYVtIMHz48WFqZSSiobWq7b5dW4GjJpbdqaVpGourJJ590U2bhukggaXVIly5dbP311w+fYh8CEEgogbgDdlS+sEioTCClqPISiimyWlUiFPQPut5mleTQKN+F8Nu9lrVddNFF7nhkzX87IQ95vSHLGS+cUgeePfbYI7hfOJ/2zz33XPePviwcUSpRYkHr8sNJ4kZCIFPSoKLBs06dOkG2VKHw0EMPWY8ePcoNSP6Cipbz+HzhbapQ0BJJLSP0A6OcBQcMGBC+pNy+RJOEQqa0++67O2dU33eVEQr77LOP3Xnnna741P6SsEtNcljUNFZYIKTmeeGFFwLWUUJBFqMzzzwziM5Wt25d1wYJF5+OOuoo++ijj/zPtNtTTz21zKqRtJk4CAEIJIJA3AE7XT6NDT6aY2X/PU5XXiKAVLISeRcKEgUadH/++WdX1QsvvNC6du1aptpXXHGFTZgwITimgU0DiwLx6K1bb3+yACjpmAaosKk/PPDI+vDTTz9Zp06d7NBDD3WmZAkVP2jqrVDTHm+88YZz8jv44IOdWVuWDB+LYKONNrLnnnsueFvVfb1Q0CCsa3bZZRfTIDR58mT3Nqq3VqV27doF5n79ThUKqr8Gq9NOO83q1atns2bNsjvuuCN485dlQg9nZVJYKPTv398FM/rXv/7lilCcgtGjR1f4NiyhoDbqzVnXKGDRxx9/bM8884wTEGqrkpY2tm/f3u1/8MEH9s9//tPtp/558cUX7c0333SHZS15/PHHA2tQuL+8BSh8faoFStagzp07m+IpKL399ttusFeZXpRFCQVZmnQ/Ja2UUDwGOXSGk4SCnhmJAYkhrcp5/fXX7e9//7t5jrIwTZw40U3DhK9lHwIQSB6BuAN2ar6wJaGiVqWzNKSWV1EZST2fU6Gg6Hn77ruva7u87WXS1T/qPh199NE2aNCgMoNWqv/CTTfdZPJsDyfNT2ug8NMIMoNrYPMpPPDoWOrbn94Wde/wdIbe6mVK90mCROLCJz0wGnx8krDQHPbee+/tDwVbvSlLaChpSkUDrk+pQkEmcw1WMp/7dM8995ja7ZO8/CvjExAWCjvssIOby1dZGmBlJdC2oqTAWVqRouWHqemMM84Igmqlsk/Nq9/z5893/aXBV0lsDjzwQLevP+H+ShUKukZCUUs6lVSnYcOGlRGGOq7pIolC7z+QTig8/fTTbrpK+TXQqx7hPtVxJS3Z/ctf/lKOuaabVG/5Kyhdd911JlFBggAEkk0g7oCdmi9sTaiohQiFigiFzscJuKS3NIXjPeaYY0JX/m+3X79+bu5fv1q3bu3mnctl+u1AeHDRFIRfLqe84XOyGMgkHbY4KI+mE/SmqqTrZTFIXYsva4HeopVk5Tj22GPdfkV/JIg0WCtpQNJ9vI9DqlBQFMVUPwRZS8IDqawrcqyMm8JCofHOjW3++/PdpfItUATDcNlxywznU0Atv+y1IouHpgrkD+AH+lTRpnLD/ZUqFMKDu0SAWMiZsqKUKhTUt7q3Bnulyy67zE3HVFRO6nlZwPSsKMlXoXfv3qlZ+A0BCCSMQKoAiKpeunxhsZBODESVpePpysuUP6nncmpRSNdoDVb6B1b/aT81aTD2YYU1GOnNP11SVD59F8AnxWfYaqut3M/wwCOzsaYmUtPll1/uTMc6HjXYhcWEHBo1t52a9Hap6YJ3333XPvzwQze3ra0CA/kkESMxopQqFGSSTxUxyqcB07+5yp/DW2Z0rqIUFgry9dDyU91HSQOm3phlaYiTtNJhxowZ9t///te1T23Tfz48sqZcfFTFdOWFl2NqikfWklQnwHB/pQoFBYLSVJPS4YcfbjfeeGO625Q7FhYKukb/yRKllE6slCvgtwMSN+pbbWWF8m33lhFNy8gZlgQBCCSbQNwBOypfeAqiMmIhqrxk0ypfu5wKhcMOO8y9eeoNWQPVzTffHAx+MuunesjLlK/Qzt5/4d577zU5IqZL8t6X2d9PH+j7AJpLVwoPPFEiYPDgwe4jQsovMeLfkPXbJ/lS+OBQenOUuPFJSxnlXCcR4lcS+HOp20xCIcqBUtMt+oaBUuq0R2r5qb/DQkEDtczjcmbUMj8liSc5UXrxknq9fmtw1LSQt7qky6NjmYSCpjn8lJCcViUo0k1lhPsrVShIoL300kvu9pV5gw8LBQlICR4llS/h5R0w3cGUP/JD0PPgrUkpp4OfCIUABTsQSDSBuAN2pnxhsRD173YqhEzlpeZN8u+cCoXUgEvyP9D8tgSBUqo5X2ZhCQWfMsVXkDOdhIIvK5w308Djyw47tckZT055qUnfonj++efd4bBQ0L1lTpd1QElvyHK2VH3kkyDTuAZmn6paKOhbD6nLIzXdoTn6dAOmBIXEhrdoaJDXB5c0ZaT2Ka6C+k4pSijIsVH39ab+dL4mnk+m/vJ1V97zzz/funXr5i/LuA0LBYlFL3hkUZEATV226gvTtIKmF3ySsDnooIOcw6Parmks/y0ThIKnxBYCySYQd8CuKJ/EgsYo/ZsSJ1VUXpwykpAnr0JBDb7lllsCL36tJtBbZzgyYNgvQG/94emFMDANZoqD4FN4MM408Pj86yIU/FcMVZbqrjfl8Nt5quAJ1y116iFKmWbTouA/ChX2LVDdNehq8E1N4ekCiT057YWnC/TG7efm0wkFCQwJKQVEUkpnPQrfM1N/hesiB0NZOeKksFDQKg85jPrpl2233dZNv/gVEuHyZAXzq100bSOn2XAKT4UgFMJk2IdAcgnEHbDj5ovb0myXF/e+2c6Xd6GgQVRLBv3yxP32288tB/QNC5ua9Y+2pivSJQU6uuaaa9wp/cPvHcx0INPA48taF6Egc7qPMaCVEloxEU6KrhgeYJIiFFTHsLOofqcTY+E4AhpgtdIgnOQzoAFTKZ1Q0JSS9wvReVl7tCIhKmXqL33H/dZbb3WXagpB5YZFWVSZYaGg5aVaXSIHWi9eVC/5S4RXk0gg6JlT0j3k9xJejaLj/uuV2kcoiAIJAsknEHfAjpsvbouzXV7c+2Y7X96Fghog8234TVbR9mRJUFK0Qw1mPmkpnEy/4SRHQQ3Efg4/dbDONPD4ctZFKIQ93/W2rrfecAoPJjqeJKGgZYSqs3wQlDQQyhTvYxLomFZF+DgVEmp+8NQ5+WZoqsY7a6YKBcUWkKOokixGinBY0ddBM/WX6ikHV++3IhEjq4JfBulu9NsfDfL6doUf2FOFgkyFivCp58Y7YqZOv4RXq8iCosig4UBMisApceD9YhAKnj5bCCSbQNwBO26+uK3Ndnlx75vtfFUiFNSInj17Om987WtdvwYY/UOvlDrQynQtHwDNlWt1gd4QNU+upGA5GozCpvFMA4+76Lc/6yIUtKRRQZGUNBjKyU5iRkGW9AasVQZhB8ckCQXVWatKNGB6/wFZZGSh8fEVwqs9NMjLYiJHUfkdyJIgJz/fvrBQ0EArEaKYGUry2dCAnS6pL32cior6S86HCpLlk/pcPiBaMirhoxDYcs5U7AffhnRCQddr2kTPlx/sFU7bCxuJETk7+rZppYmsEGKgsNGaNlPb/HmEgu8RthBINgG/xLGiyIrZHNjlF6V/S5WippiTTe3/167KhILe7uQw5//RDc8/6+1QjoQVwdVAoWVvqTEGKhp41Px1EQp6m1bdly9f/v9J/t+eBIvqFA75nDShoKqG3/z1e88993QiR/WfPn165NfRNK+v5UHeV8ALBQ2yGrwlFuIkOQkqiqVSRf2lZ0RWG1mbMiVFhaxIKOh6/WOhQd+nsJNk2IfGn/dbOTHJ8iILjBJCwZNhC4FkE/BCQf8P69+vKGfEbAkFiQQ5PsqBvzLLKZNKscqEgoBo7llv4D7J6axVq1bup1YzaG5b8+E+AqPPp8FAb4KKa5BqglaeigYe5VkXoaDrJWKu/M1XQW/ZPikSpQSCTPXhZZ1JFAqqs773oLDEPoXfriUkJHi+/fZbd1oxLzRIatmghJJWryh5oaBjCpEdN1VGKPgyNWWlqZDU7zBoJYOmJDRllWnqwZejbaqvhpa6ynFTgkdBqfQMeRGrMmWhUNslMvw3KhAKYaLsQyC5BMJv9/muZUUvvPmuz9rcL+tCYW0qUdE1Gqz0pirxIOtBugBFFZWRi/OqjwYtmeL1qWN9q6GYkqYm5COgaZ6mTZu6qZ8ktE/TDXoe5Gug72RIoHmBkK36yVokx0cthVXbMzljZuuelAMBCOSWQDgWQm7vZG4ZZSbrRa7vn83yC0IoZLPBlAUBCEAAAhCAQHwCCIX4rMgJAQhAAAIQKDkCCIWS63IaDAEIQAACEIhPAKEQnxU5IQABCEAAAiVHAKFQcl1OgyEAAQhAAALxCSAU4rMiJwQgAAEIQKDkCCAUSq7LaTAEIAABCEAgPgGEQnxW5IQABCAAAQiUHAGEQsl1OQ2GAAQgAAEIxCeAUIjPipwQgAAEIACBkiOAUCi5LqfBEIAABCAAgfgEEArxWZETAhCAAAQgUHIEEAol1+U0GAIQgAAEIBCfAEIhPityQgACEIAABEqOAEKh5LqcBkMAAhCAAATiE0AoxGdFTghAAAIQgEDJEUAolFyX02AIQAACEIBAfAIIhfisyAkBCEAAAhAoOQIIhZLrchoMAQhAAAIQiE8AoRCfFTkhAAEIQAACJUcAoVByXU6DIQABCEAAAvEJIBTisyInBCAAAQhAoOQIIBRKrstpMAQgAAEIQCA+AYRCfFbkhAAEIAABCJQcAYRCyXU5DYYABCAAAQjEJ4BQiM+KnBCAAAQgAIGSI4BQKLkup8EQgAAEIACB+AQQCvFZkRMCEIAABCBQcgQQCiXX5TQYAhCAAAQgEJ8AQiE+K3JCAAIQgAAESo4AQqHkupwGQwACEIAABOITQCjEZ0VOCEAAAhCAQMkRQCiUXJfTYAhAAAIQgEB8AgiF+KzICQEIQAACECg5AgiFkutyGgwBCEAAAhCITwChEJ8VOSEAAQhAAAIlRwChUHJdToMhAAEIQAAC8QkgFOKzIicEIAABCECg5AggFEquy2kwBCAAAQhAID4BhEJ8VuSEAAQgAAEIlBwBhELJdTkNhgAEIAABCMQngFCIz4qcEIAABCAAgZIjgFAouS6nwRCAAAQgAIH4BBAK8VmREwIQgAAEIFByBBInFO6//3578803bc6cOXbKKadYly5dSq5TaDAEIAABCEAgKQQSJRT69evnBEIYTvPmzW3IkCHhQ+xDAAIQgAAEIJAnAokRCmGRIGEgi8J9993nMCAW8vQ0cBsIQAACEIBACoEqFwpeEGgrQaDpBm19ShUQ4XM+D1sIQAACEIAABHJDoEqFgsSBhIBSJqsBYiE3nU+pEIAABCAAgYoIVJlQCIuEOE6LcnL0UxFx8lfUcM5DAAIQgAAEIFAxgSoRCms76K/tdRVjIAcEIAABCEAAAukI5F0orOtgv67Xp4NQmWOzZ8+2adOm2eabb27dunWLdemtt95qq1evtvbt29uOO+4Y6xoyQQACEIAABJJAIK9CIVuDfLbKWZsOmDhxoo0YMcLq1a1n4+4ZF6uINm3aOKFw5ZVX2r777hvrGjJBAAIQgAAEkkAgb0Ih24N7tsuL2xkIhbikyAcBCEAAAsVAIC9CIVerFsIOkZlWTWSzoxAK2aRJWRCAAAQgkHQCORcK4Td/BVLKdhyEsFjIx2oIhELSH2nqBwEIQAAC2SSQc6FwxBFHuPpOmTIlm/UuU1ZYLOTyPrpproXCL7/8Yp988oktXbrU6tWrZ9ttt51Vq1atTHvj/Pjwww/txx9/tMaNG6e9Xvd55513rGbNmrb99ttbjRo14hTrfC1U9tdff20NGjSwrbbaKtZ1ZIIABCAAgcIkUBRCQejzIUh0n1wJhQULFtjw4cPt3XfftV9//VW3cmnDDTe0/fbbz/r06WO1atXyh4PtQw89ZOPGjbOmTZvaTTfdZA888IA99dRT9s0337g8GsgPP/xwO+2009zvzz//3IYNG2Zz5861VatWuWPrrbeenX766XbsscemFRXKtHLlSufE+eKLL7p9d+Fvf1R+3759bZ999vGH2EIAAhCAQBERQChUsjNzIRQ0uOs/CYQtttjCdt55Z7ddvHixffDBB6a3/y233NIGDBhgu+22W5kah4XCnnvuaY8++qi1aNHCateubW+//bazTuiCCy+80K24OP/88+3LL7+0PfbYwzbaaCObN2+eSTwonXXWWdahQwe3H/7z8ccf2xVXXGHabrLJJtasWTMnWt5//31buHChy9q9e3c74YQTwpexDwEIQAACRUAAoVDJTvRCoW7duu5NPs7lbdu2jVweOWvWLLvkkktcMR07djQNuOuvv35Q7KJFi+yaa64xmfs1RXDHHXeYLAA+eaEgy8Nmm23m8u6www7utITH0KFD7bnnnnOi4Pe//72tWL7Crr3uWjeloUyyKlx11VX22muvOevAvffeW+b+a9assfPOO89ZOuRfcvHFFzvR4u//+OOP21133WW6/9ixY23rrbf2p9hCAAIQgEAREEAoVLITvVCo5GUue2ochZ9//tnOPPNM+/TTT+3II480ve2nS0uWLHFTAxr4NQXRrl27IJsXCjqg1SWHHXZYcE47y5cvt5NPPtl++uknd/yGG25wFodwpvnz59s555zjDkmIeKGhA88++6yb0pCl484770w7/eFXtSigVO/evcNFsw8BCEAAAgVOIDFCQasj3nzzTfd56VSmcVYz5NtHIbWOcX6nCoWZM2fapZde6t7g77nnnoxv4zfffLPJUVNTBoMHDw5u54WCnBH//ve/W/Xq1YNzfkciQGKgYcOGNmrUKH+4zPboo482CZdBgwbZH//4x+Cc/A/ee+8991XPLl26BMfDOxMmTHCWjt13391ZMMLn2IcABCAAgcImkAihEF5CGYWzIrGQb6Gw7bbbusExqr7h45pSkAk/VShoYB85cmTGAdyXM2nSJLvlllusTp06Jl4+eaGgFQh640+XdN9///vfdtBBB7mpg3R5JAK00kJWDVk3fJLPwg8//OCsErpHuiQh8cQTTzi/iocffjhdFo5BAAIQgECBEkiEUPCDfDox4EVERQGVfBmFtDzy9ttvdysUFNZZg3mm9Prrr7tBXkslNf3hlzN6oeBXPaQrQz4OL730kpuy0NRFutSjRw/76KOPnD+CQk4raQnkSSedlC575DEJmnRWjcgLOAEBCEAAAokmkCihEDXIxxEBcfJkoye8j0I2vvWgAFTPP/+8tW7d2i677LKM1XvjjTfsoosuco6MTz75ZOBwmEuhoNUQp556qqvXoYcemtY/IbXS8rlAKKRS4TcEIACBwiWAUKhk32VTKMhMr5UCjRo1cjEKMlVl8uTJbv6/fv36dvfddwdZcykU9MXLY445xi3P1MqIVq1aBfdlBwIQgAAESoMAQqGS/ZxNoTB9+nTnPKilhffdd5/7dHVUdeSfILO+AhsNHDgwyJZLoaCbKBCTIkV27drVOnfuHNyXHQhAAAIQKA0CCIVK9nM2hcL333/v4iYoiuJRRx3lIhymq46mADRgK/BS6pt9roWCHCTlqKiokLJkKFZDuiRnTaW1CTedrjyOQQACEIBAMgggFCrZD9kUCrr1Cy+8YIptoAFWIZS7desW+B/ovKIzXn311S7gUjqnx1wLhRUrVrjwz9999501adLExWrQNyjCSd/akKCQz4WiPZIgAAEIQKB4CCAUKtmX2RYKur2+8SAHRSUfwlkhmxWVUd+AUHwDhW6+/PLLy32EKddCQXXS9x1uvPFGF7RJ0yQKMa0oj8uWLbPFixbbZ0s+UzYXxwGh4FDwBwIQgEDREEAoVLIrcyEUVAWFclZMBX1PwZvxdVzCQbEMjj/++LSrCfIhFFQPhZBW0Cd9tCpcP51r2bKlderUKeufEFfZJAhAAAIQqFoCeRMK6WIkqOk+ToL2K1oeuS5lqPxCSPo0tKYb9LVGhVLWx52SlPRtCNVPoaEV/EmBp/SpahIEIAABCBQngZwLhbAQyIQwSgTommyUkenenIMABCAAAQhAID2BnAsF3TbTQK+Ii/osctR3BHy1s1GGL4stBCAAAQhAAALxCORFKMSrCrkgAAEIQAACEEgaAYRC0nqE+kAAAhCAAAQSRAChkKDOoCoQgAAEIACBpBFAKCStR6gPBCAAAQhAIEEEEAoJ6gyqAgEIQAACEEgaAYRC0nqE+kAAAhCAAAQSRAChkKDOoCoQgAAEIACBpBFAKCStR6gPBCAAAQhAIEEEEAoJ6gyqAgEIQAACEEgaAYRC0nqE+kAAAhCAAAQSRAChkKDOoCoQgAAEIACBpBFAKCStR6gPBCAAAQhAIEEEEAoJ6gyqAgEIQAACEEgaAYRC0nqE+kAAAhCAAAQSRAChkKDOoCoQgAAEIACBpBFAKCStR6gPBCAAAQhAIEEEEAoJ6gyqAgEIQAACEEgaAYRC0nqE+kAAAhCAAAQSRAChkKDOoCoQgAAEIACBpBFAKCStR6gPBCAAAQhAIEEEEAoJ6gyqAgEIQAACEEgaAYRC0nqE+kAAAhCAAAQSRKDSQmHNmjW2ePFie+WVV2zq1Kk2Y8YM93v16tUJahZVgQAEIAABCCSTQPXq1a1BgwbWqlUrO+SQQ2y//fZzv6tVq5bICscWCitXrrTx48dbr169DFGQyL6kUhCAAAQgUKAEJB5GjhxpHTt2tJo1ayaqFbGEwqRJk+yEE05IVMWpDAQgAAEIQKAYCTz66KPWpk2bxDQto1BYtWqV9enTxx555JHEVJiKQAACEIAABIqdQKdOnWz48OFWo0aNKm9qpFBYvny57b///rZo0aJylWzcuLG1a9fODjzwQGvSpIlts8025fJwAAIQgAAEIACB9AS++OILmzdvnr388ss2ceJEmz9/frmMDRs2tOnTp1utWrXKncvngbRCQZaEli1blhMJEgj9+/dnGiKfPcS9IAABCECg6AloumHw4MHlBIPEwsyZM6vUspBWKPTo0aPcdEO3bt1s2LBhRd9ZNBACEIAABCBQVQT69u1rY8eOLXN7TUOMHj26zLF8/ignFNI5Lvbr188GDBiQz3pxLwhAAAIQgEBJEhg0aJANGTKkTNur0sGxjFDQEsg6deqUqRyWhDI4+AEBCEAAAhDIOYF0loWlS5dWydLJMkLhwQcftJ49ewYA5JMwa9as4Dc7EIAABCAAAQjkh8Dee+9dxmdh1KhR1rlz5/zcPHSXQCgo4uLmm29eJpjSmDFjcFwMwWIXAhCAAAQgkC8Cmm7o3r17cDsFZVq2bJnlO4JjIBS0DLJZs2ZBhbAmBCjYgQAEIAABCFQJgVSrwty5c00rIfKZAqGQOu2AA2M+u4F7QQACEIAABMoTGDhwoN14443BiaqYfgiEQuqSyCeffNIOPvjgoHLsQAACEIAABCCQXwLTpk1zAQ79XatiqWQgFJo3b24LFy70dbEFCxYQcTGgwQ4EIAABCEAg/wQUwbFRo0bBjXfYYQebM2dO8DsfO4FQqF27dhlHxhUrVuTj/twDAhCAAAQgAIEMBDbbbLPgrBwav/322+B3PnYCoRCuiG6MUMgHfu4BAQhAAAIQyEygqsdnhELm/uEsBCAAAQhAoEoJIBSqFD83hwAEIAABCCSbAEIh2f1D7SAAAQhAAAJVSgChUKX4uTkEIAABCEAg2QQQCsnuH2oHAQhAAAIQqFICRS8UXn93iY2e8Ka9/s6SSNA9OuxhPTq0iDzPCQhAAAIQgECpEihqoSCBMHrC7Fh9u9dudW3ExUfEyksmCEAAAhCAQKkQKFqhUBmR4DsbseBJsIUABCAAAQj8j0DRCoXe103JON0Q9QAgFqLI5O64PjGe78+W5q41lAwBCECguAgUrVDY59R71qqnRlxyhO21a12Tb0Pva6fELkMCQ9fh6xAP2apVq+yxxx6zl19+2T755BNbf/317U9/+pOdf/75JuHw2muvmWKMH3TQQbbpppsGhX722Wc2bNiw4Pd1110X7LMDAQhAAALZJ4BQCDFdW5EQKuI3oZBbx0h9yWv27LJ+F/ryZmpHhusU3l+5cqXdcccdbjD2xw844AD7wx/+4H/mfPvdd99Z3759nUAI32zPPfe066+/3iZNmmS33HKLO9W0aVO76aabgmz//e9/rVevXsHvKVPii7ngInYgAAEIQCA2gdTxJd+fWMhZCOfKWhSyIRI8dV+W/53N7fDhw02f4A6ns846yzp06BA+FLk/efJkGzp0aJnz3bp1sxNPPLHMsVz+GDx4sE2dOjW4xW677Wa77LKLm35QW2Qx+Mc//uHOb7LJJs7ysN5667nfCIUAGzsQgAAE8kKg5IWCpgw0XbA20w1RPZRLP4d0QqFBgwZ25513RlWnzPFzzjnH5s+fX+ZYPoXC6tWrrX379vbTTz+5Opxxxhl23HHHlanP4sWLTWLiq6++sq5du1rbtm2D8wiFAAU7EIAABPJCoGiFQmXpVdYnoaLy/3Nv14qyrNX5sFDYeOON7YcffnDlyFSvN/NM6YMPPrA+ffq4LOFr8ykUPv74Y+vevXtQzXHjxlm9evWC3+GddE6OCIUwIfYhAAEI5J4AQuE3xtkWCeq2fAgFzem/8cYb7ik5/PDD7cILL3T7UX9uvfVWe+aZZ5yJXz4JM2bMcFnzKRTef/99O/vss919a9SoUW4aJaru/jhCwZNgCwEIQCA/BIpWKFTWRyHbuPMhFE455RR78MEH7ddffzUNug8//LDJUpAu/fjjj3bSSSeZtrvuuqtts8029tJLL7msVSUUatasaRMnTkxX3chjlRUK33//vS1YsMA22GAD22GHHUz3rCiJp1ZXfP7557bRRhuZpnbkK0GCAAQgUIoEEAo56vV8CAW9mb/++uv2yiuvuFbI/+Doo49O26Knn37abrvtNndOSxCnT5+e1qJw6aWX2syZM12+1BUH4YIXLlxocjxU0mAqkZJpEA47KIbLCe+rfo0bN7YJEya4lRk6t8ceezh/BZ8vrlCYNWuWjRw50jTVoSkMJcVqkEjq16+f1a9f3xcZbLUi5PHHHzex+uabb4Lj2tlqq63cSo199tmnzHF+QAACECh2AgiFHPVwPoRC79693YCnwV1pp512MvkwpEvKqzdrWRweeughu/zyy23OnDkua9ii8K9//cuuuuoqd1wDq/JuscUW5YocO3asEwc6ceSRR7r4B+UyhQ7kSyhIFNx11102fvz4QCCEquF2JWwGDBhge+21V3BKcR0uu+yygElwIrRz3nnnWZs2bUJH2IUABCBQ/AQQCjnq43wJhXbt2tlpp51mS5b876NXt99+u+28885lWvXee++5t2EdPOqoo9y+3qrTCQWZ3U8++eTgjVpWi2OOOaZMefpxWtfT7LMln7nj8n3Qm3qmJH8IOVN++eWXwdLH6tWrm6ZPfDriiCPcm/u6WBSeffbZIO6CAjUp5oL8MTTlomWlTzzxhLudLAoSFH7ZpYTFqFGj3DkJI7W7WbNmplUaCgj13HPPud+HHXaYry5bCEAAAiVBAKGQo27Ol1DQUkOZ/fWGr+SFQLhZClikAVRJFgdZHqKEgvKErQUtWrSwG264QYeDpOWVmuZQatiwYTDABhky7ISdGeU3IDN/alpboaAgIKeffrotX77cFSmriYJJhZMCPUk4KWkKRtYQJeX1zp2ViUvhLuYPBCAAgSImgFDIUefmUyhoPl1WAFkD/NSC9xeQM5+cGGVa1/y/91PIJBRknZCVQmZ8vfVLiNSuXTsgpZgN/s28soNqLoWCLAZ+6qVe3Xo2dtzYct+Q0FSKlmQqyTogDkoDBw4MfD1at25tms7h+xMODX8gAIESJ4BQyNEDkE+hoCZcffXV7rsJ2r/gggtMZnyl8OAZnmPPJBR03cUXX+wcJbV/7rnnBkGPJB66dOniphD0fQatugiLCOXPlHIpFDTt8tRTT7nby+lw//33L1cVOTc+8sgj7niTJk3s5ptvdvvhsNE6IKuLrDUSDfJpIEEAAhAoVQIIhRz1fL6FguIpXHTRRa418heQ34BSz549bdGiRW6w09u0H/QqEgr6WJPEh5Kc/vzHl956660gXsOBBx7o3rxdpph/cikUwm2KU52tt97aHnjgAZdVAkhTNPJFCCcti9RKElllPLvwefYhAAEIFDsBhEKOejjfQkEDnebnP/30U9ciTQ8oaqOsCEqpvgvhQTW86sFl/u3PL7/84qYzli1b5hz+9BauhyUcGfLaa6+1vffe218Sa5tLoSCfg7ffftvVQ1aOqJgSvqJqj5+K8ce01FSCKjXMtaJHKqz0tttu67OyhQAEIFASBBAKOermfAsFNUOfbR49erRrUefOnU3Ofd4U750YfXMrEgrKN2bMGHv00UfdJZrO+POf/+zerCUeFLDp3nvvrfQ8fi6FwpAhQ+z555939dVqCk2RrG3SUlKxkxOofD+UUmM6rG3ZXAcBCECgkAggFHLUW1UhFL799luTQJA1QG/AcmTUCgAtl9T8fTjFEQqKTihrg6wVWmJ47LHHBtMbazsQ51IoaBpB4kUpPF0Sbndl91988UWT5URJSykVSVKrNUgQgAAESoUAQiFHPV0VQkFNkS/BP//5zzKtCjsx+hNxhILy9u/f32bPnm1yXDzkkEPcG7ZWA2hAllWhsimXQkFWAH30SsJGSSsX5EeRLimypEI6+6SVHnXr1vU/g638O+TnoSShoHgLfkVJkIkdCEAAAkVMAKGQo86tKqGgIEoSAT7JAS/sxOiPxxUK+h7ENddc4y7TQCkzvPwS/Fu2Ly/uNpdCQXUYOnSoTZ482VVHgkZxEiQWZGGRxeWjjz6yKVOmuGkZH2BJmX2US02v6NsOEkYSHvLNkAOnUniVhDvAHwhAAAIlQAChkKNOriqhoOboM85aBqjUtm1bt7zR/Qj9iSsUNI2h6QwNsj4p1LGWDa5NyrVQkP+E6qf7ZEqpgaJ8iOuoaxTlUc6MWjZJggAEIFBKBIpWKPS+boq9/s7/whrnu0P32q2ujbj4f3EMsn3v8KoDDW5a65+awuGI04V0Vv64QkF55SApR0klrSZQ7AS9ca9NyrVQUJ1k9VAdFeFRfhrhJKuI4iuImz565ZOCML366qu2ePHiwHlR5+SPIItEp06dnKXB52cLAQhAoFQIFK1QeP3dJdb72ilV0o89OuxhPTq0qJJ75+KmI0aMCD4HLYfGM888Mxe3yUmZ+raEBn8N+IqboK9A6pPcUennn392+RXtUvnlt0D8hChaHIcABEqBQNEKBXXe6Alv/vbf7Lz2Y7GJBIV+VrAh/2au+AyawydBAAIQgEBpEChqoaAulFiQdSHX0xCabpAVYa9dy3vOF/KjpNUNPnrhujgxFjID6g4BCECglAkUvVAo5c5dm7bLciAHRpngp06danfffXfwcaiRI0eanABJEIAABCBQOgQQCqXT17FaqhDG+pJiajrjjDPsuOOOSz3MbwhAAAIQKHICCIUi7+DKNi9VKMjxr2vXri4qY2XLIj8EIAABCBQ+AYRC4fdhVlugsM0vvPCC+6BU/fr1bd9997Utt9wyq/egMAhAAAIQKBwCCIXC6StqCgEIQAACEMg7AYRC3pFzQwhAAAIQgEDhEEiMUFDEv9WrVwfk9IlkEgQgAAEIQAACVUsgLBSqV69eJqR/PmpW7TdB4D7117x5c9MX/XzSB3nW5uuE/nq2EIAABCAAAQisG4EvvvjCGjVqFBSir+7q44P5TIFQ6NGjh/tSn7/5k08+aQcffLD/yRYCEIAABCAAgTwTmDZtmrVr1y64q757o+//5DMFQkEf8enZs2dw77/+9a92xRVXBL/ZgQAEIAABCEAgvwQGDRpkQ4YMCW46atQo90Xh4EAedgKhsGjRImvWrFlwy8aNG9usWbOC3+xAAAIQgAAEIJBfAgrdP3/+/OCmc+fOzXuE3kAorFmzxjbffPMyDo1jxoyxE044IaggOxCAAAQgAAEI5IfAo48+at27dw9uJkfGZcuWWbVq1YJj+dgJhIJuljr9gFUhH13APSAAAQhAAALlCaRaE6pi2kG1KiMUVq5caXXq1ClT227dutmwYcPKHOMHBCAAAQhAAAK5I9C3b18bO3ZsmRssXbrUatasWeZYPn6UEQq64aRJk8pNN/Tr188GDBiQj/pwDwhAAAIQgEBJE0h1YBQMTUO0adOmSriUEwqqRepSSR3DsiAKJAhAAAIQgEDuCKSzJFTFkshwC9MKhVWrVlnLli1NKyHCST4L/fv3L2dxCOdhHwIQgAAEIACByhGQxWDw4MFlVjiohIYNG9rMmTNNXxKuqpRWKKgyy5cvt/3337+cWNA5CYb27dtb69atrUmTJkRwFBQSBCAAAQhAICYBRVycN2+evfTSS6YAh+ElkL4IiYTp06dbrVq1/KEq2UYKBdVGloU+ffqUidhYJbXkphCAAAQgAIESIqDphuHDh1epJcHjzigUfKZ0Do7+HFsIQAACEIAABLJHoCodF9O1IpZQ0IVaOjl+/Hjr1atXmaBM6QrlGAQgAAEIQAAC8QkomNLIkSOtY8eOVbIEMlNNYwsFX4giOC5evNheeeUVmzp1qs2YMcP9Dn+i2udlCwEIQAACEIBAWQISBQ0aNLBWrVrZIYccYvvtt5/7ne+Ii2VrFf2r0kIhuijOQAACEIAABCBQbAQQCsXWo7QHAhCAAAQgkEUCCIUswqQoCEAAAhCAQLERQCgUW4/SHghAAAIQgEAWCSAUsgiToiAAAQhAAALFRgChUGw9SnsgAAEIQAACWSSAUMgiTIqCAAQgAAEIFBsBhEKx9SjtgQAEIAABCGSRAEIhizApCgIQgAAEIFBsBBAKxdajtAcCEIAABCCQRQIIhSzCpCgIQAACEIBAsRFAKBRbj9IeCEAAAhCAQBYJIBSyCJOiIAABCEAAAsVGAKFQbD1KeyAAAQhAAAJZJIBQyCJMioIABCAAAQgUGwGEQrH1KO2BAAQgAAEIZJEAQiGLMCkKAhCAAAQgUGwEEArF1qO0BwIQgAAEIJBFAgiFLMKkKAhAAAIQgECxEUAoFFuP0h4IQAACEIBAFgkgFLIIk6IgAAEIQAACxUYAoVBsPUp7IAABCEAAAlkkkFehMGfOHLvvvvtM22yk5s2bW4sWLaxLly7ZKI4yIAABCEAAAhBIIZA3odCvX7+sCYSUNtgpp5yCWEiFwm8IQAACEIBAFgjkRSjcf//9zpIgC4AGdW2zkXy5KktlDhkyJBvFUgYEIAABCEAAAv9HIOdCITyYT5kyJSfgvbVCQiFbIiQnFaVQCEAAAhCAQIERyLlQ8IN4LqcH5POg+xSCVeGyyy6zX3/91Xr06GGNGjUqsMeF6kIAAhCAQKkRyLlQOOKIIxzTXFkTfIfl6z6zZ8+2adOm+du6bbVq1axWrVpWr149+93vfmdNmzY1HUuX2rZt64TC4MGDbY899kiXhWMQgAAEIACBxBAoCKEQnr6IskzkSyhMnDjRRowYkbEDd9ppJ+vZs2faaZCkCIU1a9Y4wbL++utnbAsnIQABCECgtAkkXiiERYLvqnRiId9CYdNNN7UTTjjBVWn16tX21Vdf2UcffWRvvvmmaRCWRUE+E82aNfPVdtskCIXhw4fb9OnT7ZJLLnHWjzIV5AcEIAABCEAgRCDxQsELAIkDJcVhUEqdyvD5Uo+7zFn84y0K9erWs3H3jCtX8oIFC2zAgAH25Zdf2jbbbGN33XWX1axZM8hX1UJBIubII4909bnpppsQCkHPsAMBCEAAAukIIBTSUclwrCKhoEtnzZrl3ta1f8MNN7igUNpXQij8jwN/IQABCECgMAgkXigkdeohyqKgbteqhnbt2tkvv/xivXr1sr/85S/B05BOKCjf+++/76YsGjZsaBtvvHGQv6Kdb7/91hYvXmzrrbee6dpNNtkk4yVrY1HQNV988YWbWtliiy1s++23tw022CDjffxJ1e/TTz+1H374wXbYYQfbcsst/Sm2EIAABCBQAAQSLxTEMCwW0vknKE9Sph5UF6XOnTs7vwWFl/bTJjoeFgo77rijyfyvlRQrV67UaZeOOuoo5wxZo0YNf6jMVsLioYcesqeeeso0EIdT3bp17YwzzrADDjggfNiefvppu+2228ocC/9o0qSJ3XzzzeFDtmzZMhs5cqS9+uqr9uOPPwbnqlevbrvssoude+65bvAPToR2PvjgA7v33nttxowZTgD5UxIaYiMhRYIABCAAgeQTKAihEAdjkoSCBtUOHTq4AfLyyy8vM2h7oaB4Chrs9aauQVrOkW+//bZ7+1Z7DzroILv44ovLNf2TTz6xQYMG2aJFi5wVQW/pEhwrVqxwVgn5RigdfvjhdsEFFwTLNJ999lkbM2aMq5MXF7I+eMvArrvuagMHDgzuJ3Fw44032vLly22jjTYyreSoX7++LVmyxN3n+++/d9f27t3biZ/gwt925s+fb/3793dWBFlemjX/n0OnLAvvvPOOHXPMMc7SEr6GfQhAAAIQSCYBhEIl+yWOj8KECRPsjjvucIP0PffcY9tuu21wFy8UJAw0+GrlQe3atd15WQqGDh1qzz//vLv2zjvvdGZ+f7GmADT4S1DIcnDppZda48aN/WnT6gtZXx588EEnCC666CI7+OCDg/PaiTP18M0331j37t1NYkCxHlSOLAE+fffdd25Fx3/+8x8nFkaPHu3q489LJMhK0rp1a9c+WSB8kpCRYCCCpifCFgIQgECyCSROKGig0xJDRVuMmmZIhzQJFgUNwi+88ILdcsst9vPPP1v79u1Nb9zh5IWCAjSNHTvWWRLC5/UGf/LJJ9tPP/1kffr0KWOi14oOTQ/IH0HWAQV4SpckNiZPnmx16tRx+cJTGHGEghww1Q4Fj5JY0f1Sk0SJpjg+/vhjZzGR5URJx9Vu1V8Win322Sf1Un5DAAIQgEABEUiUUPDhnsP84oqFfAsFWQQ6duzoqqpB8fPPP3cmd00NKCk8swTDhhtu6H77P14onHjiidatWzd/uMzWc1CcBr3Z+ySfgHfffdeZ7s8++2x/uNxWdenatauzHqQugaxIKKxatcoN9Moni8WBBx5Yrnx/QJYPxYqQkJAPhLccHH/88W7KQtMvZ511ls/OFgIQgAAECpBAYoSCHxzFUIOPLAo+ZkKcbzjkWyhE9bXe3iUCNFj6+f9wXi8U0k0L+HzXX3+9CxN92GGHuW9Y+OPHHnusyeyf6vfgz4e33plSUxWejc5XJBQWLlwYDO6PPfaYC00dLje8L1F0+umnu0Pjxo0LLByadtH0i9Khhx7qeGilBAkCEIAABAqPQCKEQqpI8PPX/mNPwlqRWPCDYb4CLmkJ4yGHHOJ6XGGQ/Xcedt5558DnIN3j4IVCpm893HrrrfbMM8+4QfZvf/ubK0YOiD4SpEJIV/RBqfPPP9/5MnTq1CkYzFVQRULhpZdesmuuucYtsxw/fny6JgTH5FNx9NFHuzJ1TcuWLd05WSXUBk1f+NSiRQtngWEqwhNhCwEIQKAwCFS5UIgSCR5fXLGQb6GQKY6Cr3u67doKBa020HSCkvwGGjRokK744JgsCfPmzXP+DqeeempwvCKhoNURmq6QD4UsCplSWCikBpbSdW+99ZYrQysodF8liQk5O6p8EgQgAAEIJJ9AlQqFikSCxxdHLBS7UNBAq9gD8oe48sorbd999/V40m7lEKkVBqlTHBUJBS1fPO+881yZsihkCuD02Wef2WmnnebyaqlnVDAlLQGV6FDcB91fVoXwUsy0DeAgBCAAAQgkgkCVCYW4IsFTqkgsFLtQEAc5BsqHQE6U+jplVFq6dKlbMaJBWR+A0jJMnyoSCvKBkC+EUkWCRJ/blj+FxERF0xQq7/HHH3ffvtD+E088UW7Fh46TIAABCEAgWQSqRChUViR4ZJnEQikIhUceecTuvvtu5ySp5ZHh+Ayekbbex0HRE7WvL1mGkwIeZbJMKLaDvlchB8RRo0YFqxnCZUhwnHnmmfbhhx/acccd55ZKhs+n29cHs/xyUUVtjKp/ums5BgEIQAACVUMgb0JBKxnkkOhFQkXOiZlwpCujFISCfAJkVdDnrLfbbjsXuTEccEmD9wMPPOCCLomfQjbLuTI1Kf6BBvg2bdq4MMypQkIBkSQCFAti7733dn2WGnBJfgyvvPKKbbXVVi5Wg6I3KskioS9malnr1ltvXebWPr6DjqueJAhAAAIQSD6BnAsFP6hLKGi5o6wC6yISPFJfrsqSR73Kzka5vvyobZzIjFHX6vjaOjP6MvXxKIVw1ry/4hcofLPCOCuEs76voGkHxW7QQC/LQbokVgpspaRPYUtMSBRcddVVQXbFSBg2bJhpBYNEgPIohLP8ElQHRW2USJD1oWnTpsF1Chjll4aqXrJKKKS1fB++/vprZ51QaOpM8RmCwtiBAAQgAIEqJ5BzoRCeLlBrszmYe7HgKcYNzuTzr822qoWC6qwvMWpK4MUXXyzzsSYt09x9993tnHPOKRP6ObWd+gCVLAJaCumTLAfXXnut/+m2ipMgsTB37lz3RUx/UsJBH52SdUOBp8JJwkJLJWfOnFnmGuXRNy0U38Evowxfxz4EIAABCCSTQM6FgpodHtCzNZhLgPiytc1Wua7QAvmjqQZFYVQYZZnzFXJZYiFu8t9dkK9AJn8BTXnoHsqveyhv6nRF6j01BaEpDH03YrPNNnPXyAJBggAEIACBwiKQF6EgJOFPRWcbUTatFNmuG+VBAAIQgAAECplA3oSCIIU/+JQNaBIIsiRoS4IABCAAAQhAIPsE8ioUsl99SoQABCAAAQhAIJcEEAq5pMFoLAAAAAI1SURBVEvZEIAABCAAgQIngFAo8A6k+hCAAAQgAIFcEkAo5JIuZUMAAhCAAAQKnABCocA7kOpDAAIQgAAEckkAoZBLupQNAQhAAAIQKHACCIUC70CqDwEIQAACEMglAYRCLulSNgQgAAEIQKDACSAUCrwDqT4EIAABCEAglwQQCrmkS9kQgAAEIACBAieAUCjwDqT6EIAABCAAgVwSQCjkki5lQwACEIAABAqcAEKhwDuQ6kMAAhCAAARySQChkEu6lA0BCEAAAhAocAIIhQLvQKoPAQhAAAIQyCUBhEIu6VI2BCAAAQhAoMAJIBQKvAOpPgQgAAEIQCCXBBAKuaRL2RCAAAQgAIECJ4BQKPAOpPoQgAAEIACBXBJAKOSSLmVDAAIQgAAECpwAQqHAO5DqQwACEIAABHJJAKGQS7qUDQEIQAACEChwAgiFAu9Aqg8BCEAAAhDIJQGEQi7pUjYEIAABCECgwAkgFAq8A6k+BCAAAQhAIJcEEAq5pEvZEIAABCAAgQIngFAo8A6k+hCAAAQgAIFcEkAo5JIuZUMAAhCAAAQKnABCocA7kOpDAAIQgAAEckkAoZBLupQNAQhAAAIQKHACCIUC70CqDwEIQAACEMglAYRCLulSNgQgAAEIQKDACSAUCrwDqT4EIAABCEAglwQQCrmkS9kQgAAEIACBAieAUCjwDqT6EIAABCAAgVwSQCjkki5lQwACEIAABAqcAEKhwDuQ6kMAAhCAAARySeD/AQAA///ifuXtAABAAElEQVTtnQWYbDXWdoO7u8PF3fXD3R0Gd3d3Z3B3d4fBbbCBYXB3u7i7w+D8rPxf6kvVrequ6u7qPl219vPcPpaTk7PSt/NmZydnsO++++7PoElAAhKQgAQkIIEqBAZTKFSh4ikJSEACEpCABCIBhYK/CBKQgAQkIAEJ1CSgUKiJxgsSkIAEJCABCSgU/B2QgAQkIAEJSKAmAYVCTTRekIAEJCABCUhAoeDvgAQkIAEJSEACNQkoFGqi8YIEJCABCUhAAr0uFJ577rlwySWXRPLszzTTTGHmmWeOW/Y1CUhAAhKQgASKQ6BXhcKll15aEgnVEKy//vphvfXWq3bJcxKQgAQkIAEJ9AGBXhMKuUhAEOA94B9ehdzLoFjog98CHykBCUhAAhKoQaBXhAJCYPfdd49FOOaYY6JAqCxPPWm4J4kKtlgauugPnojzzz8/DBw4MCy66KJhiSWWiOVvlx+///572G+//eLrbrPNNmGiiSZql1f3PSUgAQn0awK9IhSSN6Ezb0FKR+OPoKi0dL3yPMed5V3tnu6c+/nnn8M999wTnnjiifDxxx+HL7/8Mgw7zLBhpJFHCgMGDAiLLbbYIIJo7733Dk899VRYd911wwYbbNCdx/e7e3/77bew3HLLxXKfdNJJYZpppul372CBJSABCbQjgV4RCngT8ADU8iYk8MmrUE0o5CIhFwX5+c7yT8/p7vb+++8Pp5xySvj2229rZjXHHHOEww47rOy6QkGhUPYL4YEEJCCBfkCgV4TCUkstFVHccccdnSKplTaJjVwkpMySWKgmMFKanto+8sgj4ZBDDgm40ieffPKw7LLLxu2www4bPvvss/DRRx+Fu+++O4w88sgKhQy6HoUMhrsSkIAE+hGBXhEKqZHvrMffkUehloBIrDu7ntJ1d7vRhhuFjz7+KMw999zhgAMOCEMOOWTVLBmOGHfcccuu6VHQo1D2C+GBBCQggX5AoFeFQjVvQM4oeQaqpetMCHR2PX9OV/fxGKSgyc5ET7VnKBQUCtV+LzwnAQlIoMgEekUoJE8BIGo1sJ2lSV6JaiIiCYxmDz0888wzYc8994z1eeaZZ4bJJpusobqtJRTefffd8MUXX4RJJpkkjD766J3m+ccff4TPP/88BlEyBDLBBBOEscYaKww22GCd3psSIHq++eabeO9www2XTpe2BGu++eabcYiF9xxhhBFK1zrbIV/upUwTTjhhTO7QQ2fUvC4BCUigmAR6RSjw6qkxZ5/GnkadfwgE/qXVGqsJAe7JhUSepjLf1OPnnp42GsA111wzZstzKEcjlgsF7j377LPDvffeG7766qtSNjPMMEMUI2OPPXbpXNpBTNx0003h1ltvDd999106HbeIjJ133jlMO+20Zec5yJ9L+Y844ohArAW20korBaYrJiPG4vjjjw8vvvhiFAnp/FRTTRX22GOPDqc1/vvf/w7nnntu+PTTT9NtMVaDZ66yyirOeihRcUcCEpBA/yHQa0IBJHmjXg1RLgCqXe/o/s7urZZfV87ts88+4cknn4y992233TYsv/zydffkU4O99tprx+mUTK+cfvrpw3jjjRfefvvt8Morr8QiIRIuuOCCQeIfaODvu+++MNRQQ4WJJ544TDrppOHXX38NTz/9dBQOnKeh7ig24qeffgrXXnttGGWUUQL7Sy+9dEkoPPzww+Hoo48OP/74Y6AM0003XSzPCy+8ED0YBGwSyMmS27n9+eef4Ywzzgg33nhjPD3OOOOEqaeeOgw++ODh1VdejTEdTAm97LLL4nWnR+b03JeABCRQbAK9KhRAkTwIzz77bNzHq4DR0Kf9eKLGD8RCupck3FPvvTWybOg0vfrtt98+DhVwIx6ATTbZJDb4nWWUhMKII44YXfkEQ04xxRSl22677bZAI4rtsMMOpR54SnDUUUcFhgk23njjMNJII6XTsSw77bRT7MmzfgM9/9zSc5myiRhB7Mw+++yB4YCvv/46jDnmmNGrwXsgElZeeeWw2WabRUFCPgxDHHvssYFpoQxDIAryYQ7OMxWUcxtuuGFYa621StcZJrn88stLHiPyO/HEE6t6PrimSUACEpBAsQj0ulAo1ut3rTQMQdBo41lINuecc4ZNN920w7iF1GBzz3HHHRdFRro/bREIr776alhggQVKKxmma99//31AZFQzvAQMZRCvwAqQueXP3XfffcOCCy6YX477CIG77rorCojU6OeJeDYigO3+++8f5p9//niZGInNN988fPDBB4MMY+T3J28I5xQKORn3JSABCRSbgEKhG/Xz4IMPhvPOOy82kmRDj5oxfxrOatMmU4ONS/+EE06o+mRiNfCa4Lo/+eSTq6apdhLRgqeA595yyy2lHj1p03MZErjooovKrnGdIQi8CAwhIBhmnHFGTg9iBx98cHjooYeixwCvBsbKlIgPnkveeCeq2csvvxzwemAKhWqEPCcBCUigmASaJhTyAEX2u2KVcQdpCmRneVXe11n67lynR80CSzTwzCTAaOQPP/zwQXr/qcFmkaYdd9yx6mNvv/322JASI5ACPCsT/vLLL3EIgdkSH374YfzHPr16jIDHYYYZpnRbem41LwWJXn/99UC8BTEFzC4ZYoghSvfmO3feeWcUBgsvvHAUH1y74YYb4lAE8RJnnXVWnrxsnyENAhoxhUIZGg8kIAEJFJpA04RCvY16PXTSlMqOghkr8+lNscCz6ZUTgEjDieGax0WfW2qwO/rWA7MgjjzyyNgzT8F/KQ+mRBIf8NhjjwXEQm706Ik5wGoJhdVWWy1sscUW+W1xPz1zkAs1ThCXwdAJdvrpp8cgxnnmmSfgcahlTo+sRcbzEpCABIpNoClCITXo3Qk0TB4JtuSDWKjH8mfXe089+dabhviAq666KiY/7bTTyoIVuyMUmHK41VZbhR9++CEMPfTQgcBEVodknQLiEvBmEGSJ1RIKtQQKngIafvJNH26KGdX4wawKhiqwFHuQexmq3YawWWGFFeIlZz1UI+Q5CUhAAsUk0BShkLwJyRPQ1VdHJOAKx+r5TkR6Tnp+I/eke7u7Jdhv9dVXj+P92223XalxJN/uCAUCDJldwFcX8ThULpLEFMZdd901Fr9RoZDuJcbi+uuvHyTvjpgkYcT6DQwp1LL3338/Bnty3aGHWpQ8LwEJSKB4BJoqFHqioW600U8ehd4eesirdtVVV409/6233rrU8+Z6d4TCOuusE6dBIgaWXHLJ/HFxP59a2ahQ4BPZrO2A1ZqNES9W+ZFiKli58YorriiLjciT58MbCoWcjPsSkIAEik2gKUIhLbfcXY9CavTrHXrIPRDNEAqsWshCRcMPP3zNWh04cGDAk4CdeuqpYcoppyyl7Y5QwG2P+54YA2INcmOtAoYdCErEGhUK3EOZKTuLKbHoUi3jWQQ9JsNTwCwPzjM9NK1cma6zJeCTYRMCLjGFQsTgDwlIQAL9gkBThEJqsOtt4GuRSt6E1OiTL//yZZo5xpghkPZT+lr5dvU8qyKyVgHj8wsttFBgumFufAvixBNOjCsRjjfueOH8C84va1S7IxRSQ058ALEPaT0FxAMBhayB0FkwY60YBd4BdmmYZ5lllglbbrll2RAEUyeJZWBKKKsz5saSz3iPiHHYZZddwiKLLFK6TEwFXoqXXnqptFS1QqGExx0JSEAChSfQFKHAW1c28o2SSN4E7ktDGMlT0VFezRIJPBOhQPBesjHGGCMudUwDTTAhqxxifNiJxpOlmXPrjlBIqx+SH9MXZ5ttttiQ0wAjFmjYU/BmVzwK5Mv0xuuuu47d+I0GvCFM08ST8tZbb8WPSHEOT0luzMagbpiqibF6I+ngwUqQlBdueBUwgxkjBn9IQAIS6BcEmiYU8oa+0ca71r2cz5dvhjBeC4xnYOk4HvTwD8bymbLINxFYyrnSRhtttCiQGCaotvBQd4QCz2IhJaZgEjCJEXw4YMCA2Iunx5+GPLoqFMiTd2MK5ieffMJhyfiOxBJLLBHWWGONMP7445fOpx3WScBT8MADD5Q+JoWHgTUlGBZhZkaaUaFQSNTcSkACEig+gaYJBV49b/A5zhvzvEFPQwb58EFKnw8zcK4oRi+aHjSudeIW8C4gDmotVtRT5ea7C8QF0FunEU5DED2Vf8qHr1PiRUCA4FXgk9HVVptM6dOWj1RxH1u+OInA0CQgAQlIoP8SaKpQSFgqBUM6X2uLiEBU5GKiVlrPS0ACEpCABCTQPAK9IhRS8dPQAcfJi8B+EgS5x4HzmgQkIAEJSEACfUugV4VC376qT5eABCQgAQlIoFECCoVGiZleAhKQgAQk0EYEFAptVNm+qgQkIAEJSKBRAgqFRomZXgISkIAEJNBGBBQKbVTZvqoEJCABCUigUQIKhUaJmV4CEpCABCTQRgQUCm1U2b6qBCQgAQlIoFECCoVGiZleAhKQgAQk0EYEFAptVNm+qgQkIAEJSKBRAgqFRomZXgISkIAEJNBGBBQKbVTZvqoEJCABCUigUQIKhUaJmV4CEpCABCTQRgQUCm1U2b6qBCQgAQlIoFECCoVGiZleAhKQgAQk0EYEFAptVNm+qgQkIAEJSKBRAgqFRomZXgISkIAEJNBGBBQKbVTZvqoEJCABCUigUQIKhUaJmV4CEpCABCTQRgQUCm1U2b6qBCQgAQlIoFECCoVGiZleAhKQgAQk0EYEFAptVNm+qgQkIAEJSKBRAgqFRomZXgISkIAEJNBGBBQKbVTZvqoEJCABCUigUQIKhUaJmV4CEpCABCTQRgQUCm1U2b6qBCQgAQlIoFECCoVGiZleAhKQgAQk0EYEFAptVNm+qgQkIAEJSKBRAgqFRomZXgISkIAEJNBGBBQKbVTZvqoEJCABCUigUQIKhUaJmV4CEpCABCTQRgQUCm1U2b6qBCQgAQlIoFECCoVGiZleAhKQgAQk0EYEFAptVNm+qgQkIAEJSKBRAgqFRomZXgISkIAEJNBGBBQKbVTZvqoEJCABCUigUQIKhUaJmV4CEpCABCTQRgQUCm1U2b6qBCQgAQlIoFECCoVGiZleAhKQgAQk0EYEFAptVNm+qgQkIAEJSKBRAgqFRomZXgISkIAEJNBGBBQKbVTZvqoEJCABCUigUQKFEgrPPfdcuOSSSwJbbKaZZgozzzxzWG+99Rp9L9NLQAISkIAEJNADBAojFC699NIoEqq90/rrr69YqAbGcxKQgAQkIIEmEyiEUMhFQi4K8vPHHHNM9DA0mYfZS0ACEpCABCSQESiEUNh9993jcEMuElIZk1hgGAKxoElAAhKQgAQk0HsECiEUllpqqfjGd9xxR9U37+x61Zs8KQEJSEACEpBAtwk0TSgkT0C3S9iFDKp5JrqQjbdIQAISkIAE2p6AQqHtfwUEIAEJSEACEqhNoGlCIX9kikFoRkAiUynJ3xiGnHjv759//vlh4MCBYdFFFw1LLLFErxSgu8/8888/w+OPPx5GGGGEMP300/dKmX2IBCQggf5GQKHQYI0988wz4d577x3krqGGGiqMM844YYIJJghzzjln4LidbO+99w5PPfVUWHfddcMGG2zQK6/e3Wf+5z//CX//+99jWU8//fQw+eST90q5fYgEJCCB/kSg3wuFFAvRW3EJN954Y6BR6cjGHHPMsPHGG4fFF1+8o2Qtda27jXZXYHT3mQ888EA49NBD46PPOOOMMGDAgK4Uw3skIAEJtDSBXhEKzWzMm5l3tZpPQmHEEUcMa665ZinJ999/Hz744IPwyCOPhN9//z0MNthg4aCDDgrzzDNPKU0r73S30e4Km+4+k6EHvCAjjTRSmGqqqbpSBO+RgAQk0PIEekUoNDOOoK+EwnjjjhcuvOjCQX5BPvroo7DHHnuETz/9NIw88sjh6quvjqJhkIQtdqK7jXZXcPTFM7tSTu+RgAQk0J8JFEYo0OBjld91qHU+QW9moGR6Rr5NHoVaQoG0Dz/8cPQmsH/OOeeEiSeemN2Wtr5otPvimS1dib6cBCQggSoECiMUai2qVOt8epd0vRkzKtIz8m09QuHrr78Of/vb3+Jt++67b1hwwQXzLMr2v/vuu/D6669H9/ckk0zSUBDkf//73/D222/HoY4pppgiDDvssGV599QBLvqPP/44Dq0QrDneeOMNknUjjfYnn3wS3nvvvTDuuOPG4E+GabpitZ75xRdfhHfeeSdMNNFEYayxxupK1jXvIW+YTzjhhGHsscduC29RTRhekIAE2oJArwgFSKYGvdHVF7t6X7Nqrx6h8P7774dNN900FuG4444LM8wwwyDFYWz81FNPjY1vujjEEEOEBRZYIOywww5xyl46X7n95z//Ga644opAg0sjjg0++ODRc8G9BFNuuOGG8dqee+4ZpyxW5pGOTz755HDrrbfGmRppBkC69vnnn8cyPv300+Gnn35Kp+OQyrzzzht22WWX0rlajXZKQDmvu+66cNVVV4VvvvkmnY7iZq211gr8a1QwVD6TYR7YECuSbLTRRgvbbbddmH/++dOp0vall14KO++8czzmvvz58L3wwgtj3VGH/N5S9jxvRNM+++wTEGmaBCQggVYloFBosGbrEQrXX399OPPMM8MwwwwTLr/88kDgY24XX3xxPE/jyZQ8Ghq8EM8//3z48ccfY0/7xBNPDDRyuX377bfxexePPfZYPE1Dxb1DDjlk7OW+8cYbseFaaKGF4vbJJ58Mc801VymyP8+L/V9//TV6Pn744Ydw4IEHhvnmm6+U5L777guICK4NN9xw8Tn0oj/77LPwyiuvxLKde+65pfSVjXbpwl87eD6OOOKI8OijjwbEEGsWjD/++OHDDz+M7wyHjsqZ55Xv589EKPGJ8skmmywypdwvv/xy5Mo9G220UVh77bXz20O9QmHJJZcMJ5xwQmTAzAgEFHE38Bt66KEDHJgaq0lAAhJoRQK9JhQ6iyWo5TmodZ7KaGaQZK3K7kwovPDCC4HhBnrg1aZsssDPfvvtFxtMeuT5FEo8BPvvv390m6+44oph2223LSsGjS0N+PDDDx+9DossskjZdRpG1m9APKQ1AmiY6R2PMsooZWk5uP/++8Nhhx0WRh999EAsCGkx3PZbb711HNJgTQjqLr+fhv/BBx8sK3veaFeuo3DeeefFoE6GAXi/qaeeOj6HH9ThAQccEMUE16r1/EuJK3bSM2mkmXWCdwCPTDLKeeyxxwamQfJulCMfNqlHKLAY0x9//BG9J/kQEqx5Ps9Ydtllw4477pge61YCEpBASxHo10IhzXjozVUZk1BgRgNCIBnu9Ndeey2u9EcPeemllw7bb7997O2nNL/99lvYYostovu6Wg+XdEn84CXg/ZJXgYWeGEbAjj766DDzzDPH/Vo/eNY666wT3fyUY/nllx8kKQ00vXzc/qz7kGy33XaLPX248qzcJZ/SVG5To1254BLDMFtuuWUUHTTa1YZh8ATwrpNOOmk466yzKrOueZyeSQJmmiy22GKDpKXXz7vhCcEzsOuuu5bS1CMUSLzJJpuUYk5KN/+1c/bZZ4drr702Ci3EmCYBCUigFQn0mlBIjXq1XjZga3kOap3nns7yJE1PWxIKtfLFhb7CCitEV3plmuRNwF1NA8O2mq266qrR5Y8HYbbZZotJUqNIj5uedz2WGjJc/ccff3zZLQx1ICToLV9wwQWlnnZqPBEHLEKEK78eS+WrFArJm4CwQXRUszfffDN6MHjmzTffXHdAZ3oms0p411qC5h//+EecfULw5EUXXVQqQnpXTtSKUcATccMNN1StqyTeGi13qQDuSEACEugHBBQKDVZSEgrMMJh77rljwCCR8Izbs9DSdNNNF4cWxhhjjEFyJpiPHjPR+Lk3ojIhY96sw0Bg4nLLLRcv06jznM6CE/O8mFmw2WabxQaUuAii9JOlOIpZZ501HHnkkel0uP322wPxEcQQICDqtdRoVwoFYh9YhAqBk7vu83xx3xMDgCEsiIWox9Iz+b5E8rZUu++JJ56Iw0E0+giRNMRSj1CgrvJYjDz/PGgVvsYp5HTcl4AEWoVArwmF5FKvNUxQy3NQ6zwVkOIeankpmlFJSShUrqNANDw9fbZMczzllFNiMGNehpNOOincdttt+akO91OjS4DjKqusEtOSbyOrCBIH8eKLL8ZZGPlKkttss00g+LFy+iZCBkHTaHBharRTmdOL4bbPZwqk87W2Rx11VJhllllqXS47n55ZOXRSluivg7feeitstdVW8fRll10WZ4VwUI9QYKiEWQ/V7MsvvywFSDJDIo9/qJbecxKQgAT6I4GWEAq9tYYCFVxLKHCNYEQapNSwp8aJaxhj9HfddVfsreON6MwYdqDBZnZAiiHAxY4Qqdd4Hs8lWp+hBIx1AIgbGHXUUQMNJ/EQyWio//Wvf8XePyKiXkuNdqVQQMThHUEg1vPRJWIpGvUoVD6zssz5EMFNN91UGkZQKFSS8lgCEpDAoAR6TSjw6I68A7Wu1TrfWX6DvmrPnOlIKPAEPAZ4Dpiuxzbv/TNVkjFyzuEZqNcY0iDuge1BBx0UWMOgXvv5559jsCLiJYkMXOnXXHNNWGONNeLQRJ5XivugUe/s41f5fbWEAkMCNNTVnpXf35X99ExiOhA+tezOO++MXgHWl0AYJVMoJBJuJSABCdQmoFCozabqlc6EAjMemCr36quvxmmKCAJEA8bnqYkHYF0CFgeqFcxY7cGbb755ePfdd8Nqq60WZ05US1PrXFpUiXUEmLpIDxy3ebV4gDRlkrIhGvJpkbXy53xqtCt792m4heEEvBU9aemZeF4I/KxlTAHlvSoDKhUKtYh5XgISkMD/EehVoZBiCqoNFdTyHNQ6zyt0dO3/XrFn9zoTCjyNaZIEIiIaGH5I8QVfffVVYFpkrTUW8pIyGyEJDM6nKYSsk4BHgAj+em3gwIFxdULiKrbbfrsYl1ArVoRFnYgrYGnpZZZZJuy00051PSY12pVCgUBGAhqxavWeZ175zvm1avvpmXBCkFVbIZFhG1bJJO/KeAyFQjWqnpOABCRQTqAwQoHeK1bvR6E6C44sf82eO6pHKPA0Zg4wgwDvAR+GSt8cyBt8vAQsrJRP62MGwJVXXhnPISqS/fLLL9G9TsNH0Bwu/WmnnTZdjlsWWeI500wzTdl5DlLwIr3qZ599Nuy1116hcsGmdFOa+UC5EDkIBwRKMrwRxDGsvvrq6VRNjwIJkkDE9c8aDcy0yI3vSODdYPGpemI30r1JKHDMKpUsZEUsRjI8MASYkj9DKaeddloZa4VCIuVWAhKQQG0ChREKtYtY/UoaS+/NGQ+UpF6hkPfMiSkgtgDDm0DPlhUcMXr5AyYfEJd5ZkVEAg1JU22IgSmYhxxySJwmSS+aNQ5oGIlD4MNSiIjKpZjjQ/76wbRAvi2BsVgU8RJ54x8v/O8PPCEIHdYWwAh6pLeOCGEGA+Ug4DAFR5ImNdqVHgWu8V68M4seIT4o86R/La5EzAXvyzRO9nm3rggFppAys4PpikxPZWonIgFPCgsuMS2UvCvXhFAoUDuaBCQggY4J9KpQ6MnGvSfz6hhR+dV6hQJ33XLLLaWgxbwBpyHGa0BAId8kyI1GeeWVV47Bi5XfiCAdSxUTZMiyxAiEZAgHZkiw9HK1YQmewzRCPBN4CSpnZKR88i2fy2a65EcffZSfjoKB4MSVVlqpdL4joUAiyo1QYelnypAbooH88HCkNQ7y67X282dSlsMPPzyuKInowIizmGOOOeLSzoijSlMoVBLxWAISkMCgBHpVKPTkcEFyZ3c27j3oKxfrDFMH6f3yTQF6vnx3IR+KqFVaxAa9e7wIiAuGI0YaaaRayePHkejts7Rzmv1QM3HFBRp5ev70zvEq0GPP4ycqknd4SKwAPX+GA3hXFinqqNwdZlblIuKJQFLyZMXGRoRHlew8JQEJSKDtCfSqUIB2CkDszpBB8iaQX63PVnNN+z8CaWpmteWc/y+VexKQgAQkIIFyAr0uFJJXgWIgFoi+5189xr38IyAQ647YqOd5rZKGXjYLNrEE9D777BP4DLUmAQlIQAISqIdArwsFCpV7BOopZLU0ioRqVKqfI6aB2IrOPp5U/W7PSkACEpBAOxPoE6GQgCMYmKqHl6AeS56H5Imo5552TcMXD4kjePLJJ+OnpNlnsafEsF25+N4SkIAEJNAYgT4VCo0V1dSNENhiiy3itETuYS0HFoDiK4uaBCQgAQlIoBECCoVGaPWjtAR5sn4Bswrmm2++OFuhHxXfokpAAhKQQEEIKBQKUhEWQwISkIAEJFBEAgqFItaKZZKABCQgAQkUhIBCoSAVYTEkIAEJSEACRSSgUChirVgmCUhAAhKQQEEIKBQKUhEWQwISkIAEJFBEAgqFItaKZZKABCQgAQkUhIBCoSAVYTEkIAEJSEACRSSgUChirVgmCUhAAhKQQEEIKBQKUhEWQwISkIAEJFBEAgqFItaKZZKABCQgAQkUhIBCoSAVYTEkIAEJSEACRSSgUChirVgmCUhAAhKQQEEIKBQKUhEWQwISkIAEJFBEAgqFItaKZZKABCQgAQkUhIBCoSAVYTEkIAEJSEACRSSgUChirVgmCUhAAhKQQEEIKBQKUhEWQwISkIAEJFBEAgqFItaKZZKABCQgAQkUhIBCoSAVYTEkIAEJSEACRSSgUChirVgmCUhAAhKQQEEIKBQKUhEWQwISkIAEJFBEAgqFItaKZZKABCQgAQkUhIBCoSAVYTEkIAEJSEACRSSgUChirVgmCUhAAhKQQEEIKBQKUhEWQwISkIAEJFBEAgqFItaKZZKABCQgAQkUhIBCoSAVYTEkIAEJSEACRSSgUChirVgmCUhAAhKQQEEIKBQKUhEWQwISkIAEJFBEAgqFItaKZZKABCQgAQkUhIBCoSAVYTEkIAEJSEACRSSgUChirVgmCUhAAhKQQEEIKBQKUhEWQwISkIAEJFBEAgqFItaKZZKABCQgAQkUhIBCoSAVYTEkIAEJSEACRSSgUChirVgmCUhAAhKQQEEIKBQKUhEWQwISkIAEJFBEAgqFItaKZZKABCQgAQkUhIBCoSAVYTEkIAEJSEACRSSgUChirVgmCUhAAhKQQEEIKBQKUhEWQwISkIAEJFBEAgqFItaKZZKABCQgAQkUhIBCoSAVYTEkIAEJSEACRSSgUChirVgmCUhAAhKQQEEIKBQKUhEWQwISkIAEJFBEAgqFItaKZZKABCQgAQkUhIBCoSAVYTEkIAEJSEACRSSgUChirVgmCUhAAhKQQEEIKBQKUhEWQwISkIAEJFBEAgqFItaKZZKABCQgAQkUhIBCoSAVYTEkIAEJSEACRSSgUChirVgmCUhAAhKQQEEIKBQKUhEWQwISkIAEJFBEAgqFItaKZZKABCQgAQkUhIBCoSAVYTEkIAEJSEACRSSgUChirVgmCUhAAhKQQEEIKBQKUhEWQwISkIAEJFBEAgqFItaKZZKABCQgAQkUhIBCoSAVYTEkIAEJSEACRSSgUChirVgmCUhAAhKQQEEIKBQKUhG9WYw//vgjDD744L35SJ8lAQlIQAL9lIBCoZ9WXKPF/uyzz8Ipp5wSnnjiifDhhx+GkUceOey4445htdVWC//973/DP//5zzDiiCOGhRdeOAw11FCl7O+5555w1VVXxeOpp5467LrrrqVrRdrJyznddNOFnXbaqUjFsywSkIAE+i2BHhcKt99+e3j00UcHATLEEEOEMcYYI0wwwQRhlllmCZNMMskgaTzRHAIvvPBC2HTTTaMgyJ+w3XbbhS222CLstdde4bbbbouXttxyy7DtttuWkl166aXh6KOPjsdzzDFHOP/880vXirSTl3PuuecO55xzTpGKZ1kkIAEJ9FsCPS4UDj/88HDllVd2CGSwwQYLiy++eNh9993DuOOO22FaL3aPwM8//xxWXXXV8N5778WMhhxyyLDggguGUUYZJQq2VVZZJay00krhrbfeitcXWGCBcNppp5UemjfACoUSFnckIAEJtA2BPhEKie7kk08eLrnkkujyTufc9iyBZ599Nqy//vqlTBFxuOZzu+uuu8JRRx0V6+Gggw6KAiJdVygkEm4lIAEJtCeBpgqFpZZaquS2/uGHH8I777wTzj333MB4crLk/k7HbnuWwDXXXBMOPfTQmCnemzvvvLPqA2oFOCoUquLypAQkIIG2IdB0oXDMMceUwfz9998D7u633347nv+f//mfcMYZZ5Sl8aDnCFx00UXhuOOOixlWDivU8xSFQj2UTCMBCfQnAs8//3y48MILY5HXWWedMPvss3er+M8991y48cYbw9dffx022mijMOOMM3Yrv6Ld3OtCAQDEJtxxxx2Rxfzzzx9OP/30TrkgMBhHH3744cP4449fNT29Ysbi33///TDWWGOFSSedNAw99NBV0/bGScpMWT744INY7immmKKuYZbvv/8+vPLKK7HsU045ZRhuuOG6XNzeFgrMrhg4cGAYe+yxI39iIjozZl1Qb5988km8b7LJJmu43nJBUxnM+M0334SXXnopTDjhhPEfMTKaBCTQvgT22GOP8MUXX0QATBXfbLPNAn83umKPP/54OPvsswPtDzbqqKOWOmddya+I9/SJUPjb3/4WXn755chjq622Cttss00ZG7wM3333XTyH6qOhZFoejS6GO52pesloVBljZzz+t99+S6fjWgHTTDNN2GeffcJMM81UOs8OXo033ngjnttzzz3DuuuuW3b9l19+CfTAacQwhkzmmmuusjQInDPPPDOe4x14F4x7KPfVV19d+mWMF/76QQO63377xWmI6VzaPvTQQ/E9UmBhOj/zzDOHv//97w3NFMkDFFM++XbYYYcNjz32WDzFVMJ//etfcb9yKChvgGsFM/75558x1uSCCy4oe19EwtJLLx35M/Wy0pimyX+wW2+9NRB0mYz/uBNNNFE477zzIq90vqNtXs4kFIi9IP/XXnstUEZspJFGCrvsskucFpryYybHiSeeGA+HGWaYcP/991cVZ/whWGSRRcJXX30V0/K+3e2JpDK4lYAEeo8AQffp7z9P7apYqBQJ5EUHdf/992e3ZaxXhQJ/aP/xj3/ERg+Co402WrjppptiBH5ONBcKNNBHHHFEWaXmQoE/8DTKSc3l+aR9epCbb755oBFMdsIJJwT+0GOLLrpoqaFI1x955JE4dTAdV04b5Pwmm2wS1yVgn7UGpp122vDTTz9F4cN6BbXswAMPLGuoaMQYHrj44otr3RIbLt513nnnrZkmv9BbQoHeOh4ieNUyevKwHmeccUpJiFeBHx6IWnbLLbeEiSeeuNblsvOVQgHht/POOwe8OtWMAE/KjdGzWGKJJUoik+Ey4msq7eGHHw78HmCUi/JpEpBA/yPAlPGTTz657O9Do2Khmkggj+23336Qjmn/I1Re4qYKBRpOpubRiDMm9J///CfQsGD0zFBdY445ZnmJ/jrKhQK9eu7DHT399NNHFzLeAzwK/KHGW5BsnnnmCcsuu2xcq4EYCHr0r776aroc59Yn99JTTz0Vx5K4yOJDPCN3SR977LFlDTc9xyQsuAePw3zzzRe3vAMBmtzPLI4Ul8G6Efvuu2/sdcKAxhFhRF4rrLAC2URjbCspUMqCW4z3/vHHH8MVV1xRKgeNE2lZk6IzQ7jAmvfEU4HRS0dAYOTB2gpYdzwKeEd4J4xZLHvvvXecVcFwC+InCQiem4IqSbvDDjuE++67j934nwqPEcMs3377bfQAXH755ZEJZa7HcqFAffDuDPWsueaasVF/8803o1eI4Y1k/H7gccLwMtx9991xf8kllwzUf6UdcMAB4YYbboinYYbQ0SQggf5JgM4cHse8M1GvWKglEliXZs455+yfQDoodVOFQq3nLrTQQuHggw8Oo48+etUkuVAgwXrrrRd7f3lDjvuXxofgEWzttdeOCwflaXBno+5SY4XYuO6662IjScPNegI0TFjupeA4DU2wQBSNHqsV0uDimsZyoYEYYlohxmJFiA6MBp+yd2Q0aIiG9B7HH398XGMiv4dgGxQwxnN4Xr2WxyggbNJQSX5/V4XCk08+GTbeeOOYFcMMxJ0QG5KMWAsYMxxEvSAoWGgL9pQFIYTlDXa6t9FtLhS4l9+hk046qSzWgd+Z1VdfveTFyD1J1G0aOmKoi+GHVNfk9+uvv8bhIobEEFkMa1QTuaTVJCCB/kGgK2Kh3UQCNdknQiH9CtHQ0wMlQDG3XCjQo7z55psH+TYBPebDDjss3obgYEXIakF/xC/Qq0yWN0o05CxdjOWNOr1OXNEYwxWnnnpq3M/jFFCi6TxDAjQ6WN7okgc901y8xETZD9Y1YLwMw0WPlwRVm1v+LERFeu88Ta39ZgoFvAA0mNiKK65YGlLKy4LCTkLtkEMOCSuvvHK8nNcxK0MihrpjuVCAH78z1bwReTqCjhAEGMM/eKMQhVilYMP7gRcEwxuGCNEkIIH+T6CWWGC4ujIurR1FAjXcVKHAeDrjxBjrKNAA33vvvdHFm9w9uGkIWsstb0T440xEaqURt4BbHqP3j4eiluFK/vjjj+NlliMmwA7Lhy7yP/7XXnttzI+GhrgBrmF54GVqAPE04EFIYifdG2/46wfDL3g7EA0jjDBCOl3a0uinbyngaVlsscVK19IOQxaJ0ayzzhpo/Ou1ZgoFGn1c+tiGG24Yhx4qy0UDmwIlYZbiRBCIBDEmQ2jx3QnqvlIopTQdbXMBgNcCoVDNCKIlmDYZcQepXlj2me9hYMsss0wMLE3p8mWuGdtceOGF0yW3EpBAPydQj1hoV5FA1TZVKBAQlsbr898jXNCMbSer7L3lQoEeOQ19paWGmvMML6D+atlGG20Uhwq4ztBACkjD3U/jTG+S2AB6lzRSabyaXi4NxOqrrR5eG/haSFH/uNJxnRO4iBg666yzSo8mL+IN0rh9ukDUPw0U5Uyigmt5QGRK29GWgMDUi+8oXbrWLKGA0EPk5bNM0jNrbZdbbrkYmMr1L7/8MgZ9Mm0xN7wqxE4wvNKRJya/h/1cKNQaYiEdgYtJ+HFMzMGAAQPYDZ9//nkUdLwbdcTvA9NrGcJiCIXZLAytwL8rYiY+xB8SkEAhCdQSC7Q1GJ5dhk2T8TeAa60Yk5DeMW37RCjwcHpkNBbYBhtsEHbbbbe4z49cKDCjYbbZZitdSzuM/bPIBYbXIo2Vp+v5lmuMp2OVQWhEvzOtEmNYYqqppgqs7cD4OgtBUZYU2EijwVg2vdK0LHIttzm9aHqoL774Ysw7/aAhZAgjrQWRP59ZIKl3m9JXbvlGQ/KkVF6rdtwsoUDjmf8HYdXHztZMIEATT0Iyxv3xplDGPMiQ63Cnd99ZnimvXCjwnPx7FSkNWzwgafiDY7xBME2WDx0lzwHCIH01ExHDVzc1CUig9QjUEgu8abuKBN69z4QCbmYW5sHynibH9QiFPAKdADWOaxmejY8++iheTn/8U9rc3YxYmWGGGQIeCNYZeOCBB2KP8sEHHwxbb711vIU59wiUNO+ery7S+NcyYiRoDJmtkHrfaZ4/9zArIrnJeUZ6Tq38Gj3fLKFAOfIhHbjgcemK8R+QIQCGedgmq1zTIZ2vts2FAutOMPukmuV1iZcnzQhJafPryy+/fIwfSR4m0jBcUi32Id3vVgIS6N8EqomF/I3ayZOQ3rtPhAIuf8akU8NJA41XIVk9QiFvAHHHE2+QR6mnvF5//fWyWQKVf+iZPrnGGmvE5AxD4FFAPLCfxqsZYsCdTXlZWAmhgIiY7K9ZFAiAeoygSQImMaLm+RQ3HgqGLVLvl+mduLd60nJOtVzyeS+6snHOG+A09JLKR+xIWrSps+GfdE9nW6ZQMgMFayQeIy8nXhliYRB7lcZ0Wn5XMD6OVfmlU0QL8QkISxZn4veFL50yHbby/Svz9lgCEmgNArXEQjuKBGq014UCY8S4n1MkPIWgx03QX7J6hALR6QQx0ohjCA3cw/m4Nq5t3MQ06lhlPEE8+dcPAg1xfbPuAY0/vyTEUOSzJVIsAW5thiqYVkkAX3JJp7woF1MqKy0XLAgFerLM0sDjQOwCsQ1YrcV+uMYKgwiZRqyZQuGyyy4rBfzxLiymVa23zZg/AZkpFgDBxbATq1RWGsMqBKpiHXkGKu/LhQLX8gWVUloEHt6iJFArF75K6fJZJojIJFwoF94vTQISaH0ClWKhXUUCNd1UoYBLnl4yxh9nemn8sU7LInM+Dy7kGKtHKJCO+AUCIZNxX+WCSylYDm/D9ddfX3WYIO/Fko7xd9YEGG+88VLWsafPdEgaxFT+au72tMAPUz9ZgIhZEcQ0kJa1F7BZZpmltIgSxzRYlA1D6BDIh1ufRpe5/yzpzHXWXGAdiEasmUIBAUBZ05LTBAAiqIhdQAQgmhA3LJ6UxycQ/0FAIcGinEdAsD4BdcWslLQGO4GfeCrqsUqhwD3MIGH4AA/D008/HeuAusX43WTIB9FWaawWiXjEu0CMBL+7eBeIO6nmtaq832MJSKA1CLB+zQ033PjX396v498rvJztaE0VCh0Bxe1Or69aYFi9QoE/5DSynbn/mdHAQkW4kKvZfX9N4Utz5LlOA58a7pSelSXz70HQcBAVX9nQ0APNV4NM96ctZWFoI/eg1JoBkO5JW1YaLJJQoFzPPPNMDCZNjXsqa+WWKaIpkBGhwDBIR8aKiXDKAw07Sp8LBYYIuC//nHl+L+tuEGOCYKtl/F4yfJFsrbXWKlsFNJ13KwEJSKDVCfSqUCCWgF4yY8MMFVRzPQO8XqGQKocANGYmENGeXPhco4fLtDY++sSwQi1j+IKZDoxDY8ySSOs/pHsQJfR+08eqak39JK7h3//+dyxLcnGTB54FvASM6yNEKo3eOfEKuPPTM1IaerX0jmlsq80ASemqbZvpUUjPw+vBolE0rIlhuoYwYjEmyp6GJejVEyuApyV96CulZ+YHsxKYXcC99VouFAgWZcYKIpIZC2l4Co4sn80HtvLvTlR7BrMh8HYlyxfqSufcSkACEmgHAj0uFPoSGg0QYoGGa9JJJ41DB3nMQm+WjQaTr5PR06ZRIm4hXz+ho7J8+umngZgGxAX38q8/uLwRU3wu+t13342NPEKQf5Vel/zd8S4Qp4FQYoolnOqdEpnnU2sfscYUVcpAfAeerHqM7z4w2wHD+5MWxarnXtNIQAISaCUCLSUUWqlifJe+JZAv6MUU1nw1x74tmU+XgAQk0LsEFAq9y9un9QMCTPlMy4YzFMIUSdZc0CQgAQm0IwGFQjvWuu9cRoAhE74FQkwECz7x3ZD0VdHKabJlN3ogAQlIoA0IKBTaoJJ9xY4JEDxKAG2lMYXzhBNO8LsOlWA8loAE2oqAQqGtqtuXrUagmlDgc97Mmqg3+LFavp6TgAQk0AoEFAqtUIu+Q7cIsIIn35lgPQtmXvAN+qmnnrpbeXqzBCQggVYhoFBolZr0PSQgAQlIQAJNIKBQaAJUs5SABCQgAQm0CgGFQqvUpO8hAQlIQAISaAIBhUIToJqlBCQgAQlIoFUIKBRapSZ9DwlIQAISkEATCCgUmgDVLCUgAQlIQAKtQkCh0Co16XtIQAISkIAEmkBAodAEqGYpAQlIQAISaBUCCoVWqUnfQwISkIAEJNAEAgqFJkA1SwlIQAISkECrEFAotEpN+h4SkIAEJCCBJhBQKDQBqllKQAISkIAEWoWAQqFVatL3kIAEJCABCTSBgEKhCVDNUgISkIAEJNAqBBQKrVKTvocEJCABCUigCQQUCk2AapYSkIAEJCCBViGgUGiVmvQ9JCABCUhAAk0goFBoAlSzlIAEJCABCbQKAYVCq9Sk7yEBCUhAAhJoAgGFQhOgmqUEJCABCUigVQgoFFqlJn0PCUhAAhKQQBMIKBSaANUsJSABCUhAAq1CQKHQKjXpe0hAAhKQgASaQECh0ASoZikBCUhAAhJoFQIKhVapSd9DAhKQgAQk0AQCCoUmQDVLCUhAAhKQQKsQUCi0Sk36HhKQgAQkIIEmEFAoNAGqWUpAAhKQgARahYBCoVVq0veQgAQkIAEJNIGAQqEJUM1SAhKQgAQk0CoEFAqtUpO+hwQkIAEJSKAJBBQKTYBqlhKQgAQkIIFWIaBQaJWa9D0kIAEJSEACTSCgUGgCVLOUgAQkIAEJtAoBhUKr1KTvIQEJSEACEmgCAYVCE6CapQQkIAEJSKBVCCgUWqUmfQ8JSEACEpBAEwgURig899xzgX/PPvts3PKuM800U5h55pnDeuut14RXN0sJSEACEpCABDojUAihcOmll4ZLLrmkw7Kuv/76CoYOCXlRAhKQgAQk0PME+lwo5CIBDwKCgC2WvAxJRCgWev4XwBwlIAEJSEACHRHoU6GQi4RjjjmmJBAqC5ynUyxU0vFYAhKQgAQk0DwCfSoUllpqqfhm9TT+eBd23333mL4jUdE8VOYsAQlIQAISaD8CfSYUkpegHpGQqgWhgGBo5J50r1sJSEACEpCABBon0GdCITX6jXgHkleBGAbu03qPwL333hvuvPPOMNlkk4Utttii9x7skyQgAQlIoE8J9JlQSMMOd9xxR0MAunpfQw/pIPEzzzwTaDRzG2ywwcLII48cxhtvvDDhhBOGGWaYIXCuleyKK64IF154YXy34447rpVezXeRgAQkIIEOCCgUOoBT7dKNN94YTj/99GqXSuemmGKKsOWWW9YMziwl7Ec7CoV+VFkWVQISkEAPEugzodBfhx6SUBhxxBHDmmuuGavijz/+CF988UV477334oJRf/75Z/QoMDwy44wz9mB19V1WCoW+Y++TJSABCfQlgT4TCimYsZF4g3RPXwYzJqEw3rjjhQsvunCQunvjjTfCAQccED7//PMw9thjh3POOScMO+ywg6TrbycUCv2txiyvBCQggZ4h0GdCIQUm8hr1BDQmkUD6RuMauKenrDOhwHOefPLJsM8++8RHHn300XEZ6p56fl/lo1DoK/I+VwISkEDfEugzocBr541/R16CXFR0lK43UNYjFH7//few4oorht9++y1svfXWYeWVV65atE8++SQOV4w77rhhggkmqDsAkqGNTz/9NN472mijhYknnjgMNdRQVZ/R2cl33nknfP3112HyyScPDKfUskaEwnfffRdef/31MNJII4VJJpmky2WrVRbPS0ACEpBA7xHoU6HAa1aKBYYi8iWcWb4ZoYD1tUigDPUIBdKts846MW6BD1pR7mQ08tddd1246qqrwjfffJNOx+GJtdZaK/Cv1owJGvQzzjgjPProo+G///1v6d7BBx88TD311GHHHXeM0xdLF7KdZZddNiBgjjrqqDDddNOFU045JTz22GNRJKRkAwYMCHvuuWeYdNJJ06nSth6h8NRTT4VTTz01fPDBB6X7hhhiiLDAAguEHXbYIYwwwgil8+5IQAISkED/INDnQgFMuVioha0IIoGy1SMUaMRXWWWVgCjYf//9w/zzzx9fi/NHHHFEbOhpQKeffvow/vjjhw8//DA8//zzMf1cc80VDj300EEwIA6OPfbY8O2334bhhhsuMLMCL8THH38cBg4cGH744YfYc99mm20CoqDSklAg7xtuuCEGXU411VTRG0EeL7/8cvj555/DMMMME2Ms5phjjrIsOhMKF198cbj88svjO+CdoHwIG97rxx9/DHhNTjzxxIAHRJOABCQggf5DoBBCIeFCMFT7zHTuZUhp+2pbj1C4/vrrw5lnnhk9AxdddFEYZ5xxYnHPO++8cPXVV4exxhorCgi8AMnwmhAEiZjIxQXXv/rqq7DppptGMTDLLLOEvfbaq6zB/f7772OcxyOPPBLFwrnnnhsb5pQ32yQUaLAZpth3333LvA94AQ4++ODAUAQChCBMxEyyjoTC448/Hvbbb7+YfpdddgmLL754ui0wvML7kC/DMdtuu23pmjsSkIAEJFB8AoUSCsXH1bFHAQ/CPffcE3vOv/76a1hppZUCPXzs/fffj2sr4P7HM8CiTJXGMAtiCdf/WWedVbpMQCT5spjT2WefXdaAp0RM0dx8883jc/Bg0DjnloQCIgERwOJQlUZjzvoPvMeuu+4allxyyVKSWkKBOAxWakRobLTRRmHttdcu3ZN2UozJkEMOGd9Pr0Ii41YCEpBA8QkoFBqso+RRIPBv1VVXjXf/8ssvsef82muvlcbncb/jah966KFjmuRNmHnmmQMNfzV78803Y/AjMQo333xz7PkzHIDgoPHGC7DgggtWuzWeu/vuu6NnAU/ALbfcEohdSJaEwnLLLRfjBdL5yi0Cg9gFRAJiIVktoZC8CbzntddeW3rfdF/aworhEYZeZptttnTarQQkIAEJFJxArwgFepR5UGJPM+nN+IUkFGq9A2P8BCSuscYasaFP6Q488MDA0AC9/VqNPcMOJ5xwQrwFYYEH4a233gpbbbVVPHfNNdfEpaJTnpVbevWbbLJJPM1yy7nXIAmFnXbaKSyzzDKVt5aOk6CpXN+illAgMBPvx0QTTVQWtFnK8H93GA5hpgZBjYgVTQISkIAE+geBXhEK6fsMzUZSz3oM3S1DEgrDDz98WHTRRWN2uNTTdx6mnHLKMMooowzyGBrwfDbAIAkqTjA7gXiE+++/Pxx22GFxxgCNckfGMMDyyy8fvQ/ckwckJqHQWY8+vV/lglK1hMJJJ50Ubrvtto6KVXZt3XXXDRtssEHZOQ8kIAEJSKC4BJouFNKMBnqo9PzT1MeeQpJ7Kyp7wT31jDyfWg1pnqbaPu9Oj5oyMizRmdHg41Hgi418hImPTuFR6MhyoVC50FMSCkmA1MqH2QuXXXZZmHbaaePQSUpXSygQb3HXXXfF2Rtzzz13Sl5zy7ADMzs0CUhAAhLoHwSaLhSSN6GZvf0ULAfyZq/a2FWhwPoEfHmSIYnNNtus7t8Opi0yXIDhUehoLYKPPvooBhSSloZ99NFHZzdaEgoHHXRQmHfeedPpQbap4V9sscXCHnvsUbpeSygwJZKZHUy1ZG0GTQISkIAEWotArwmFZjfgSZA0+zldFQrJRc9wAr36eo2pj6uttlpM3lkjz+evjzzyyKrDFEko1JqZwAPwSGy44YbxOxWVcR+1hEJ6Jms7MPUzBW/W+36mk4AEJCCBYhNoulDoylciG0WWPApFHnogkJGARqwz7wpTHfMZC3w3gu9HsFQzgYP5tcSKWRFMU3z33XfD6quvHqdKpmtsk1DgQ1VMsaRhr7Q0zMEUSoIhxxxzzFKSWkKBNR4QHz/99FOnK2dWvlcpc3ckIAEJSKCwBHpNKFT2UHuSSIqDaOYzUnm76lHg/iSaaIB32223MOuss6Zs45YVEpl1wIJF+Xg/KzciAlibYfbZZ4/55GsR4HUgjuGhhx4KY4wxRsyjUggkocCDiBHg+XnQ5YMPPhg9HUzHZFXJNNMiFbCWUOB6Wv8BgcFaDiyslC9DzWyOK6+8Mp5DVGgSkIAEJNB/CDRdKPRGbz8NOxRdKLCgEWshfPbZZ7HR5NsKLK7EIkxvv/12/MgT+4ccckiZUODXiTUSTj755LjMMiKA2RWsoEhcQlrCGZGA96HaYk5JKGy88cZxiICGnCWkEQus/0DZ8EowNMJaCpUfiOpIKOBN4L1eeOGF+JvPjIkBkw+IeZAv70YahlAQPJoEJCABCfQfAk0XCqBIPelmDA0kb0Iz8q5Wjd3xKJAfvX8+nEQPnoWackM0EOy4yCKLVF19kemViAW+n4CgSIZwYH0GvACVDXxKk4QC8RFM7WT4g2GKZNzH+gb0+KsNbXQkFMgDkYHXgJkZLKyU26ijqWpb4wAABW1JREFUjhq/oLnCCivULF+e3n0JSEACEigOgV4RCsmrwGv3ZK8/CRDybXYQI8/oSWO8nmWdGW5gdgLfg+CzzPUYQYfc+/nnn8cplNybu/qr5ZELBbwGGF+vfOONN+LURr4B0VPGNFBECDM0iIng/TorX08923wkIAEJSKBnCfSKUKDIuVjgGMGA8RnmRox8Kld57Cw4sJH8WzVtNaHQqu/qe0lAAhKQQM8R6DWhkIqchgrSMdskGhg+wNIWUZCM/fzLkikdIkHrnIBCoXNGppCABCQggUEJ9LpQSEWoJhjStY62iAg+rMQ2CYqO0nvt/xNQKPibIAEJSEACXSHQZ0IhFRbBkAyPAZY8CbkQUBwkSl3bKhS6xs27JCABCbQ7gT4XCu1eAb31/gqF3iLtcyQgAQm0FgGFQmvVZ823ueGGG+IURqZRjjXWWDXTeUECEpCABCSQE1Ao5DTcl4AEJCABCUigjIBCoQyHBxKQgAQkIAEJ5AQUCjkN9yUgAQlIQAISKCOgUCjD4YEEJCABCUhAAjkBhUJOw30JSEACEpCABMoIKBTKcHggAQlIQAISkEBOQKGQ03BfAhKQgAQkIIEyAgqFMhweSEACEpCABCSQE1Ao5DTcl4AEJCABCUigjIBCoQyHBxKQgAQkIAEJ5AQUCjkN9yUgAQlIQAISKCOgUCjD4YEEJCABCUhAAjkBhUJOw30JSEACEpCABMoIKBTKcHggAQlIQAISkEBOQKGQ03BfAhKQgAQkIIEyAgqFMhweSEACEpCABCSQE1Ao5DTcl4AEJCABCUigjIBCoQyHBxKQgAQkIAEJ5AQUCjkN9yUgAQlIQAISKCOgUCjD4YEEJCABCUhAAjkBhUJOw30JSEACEpCABMoIKBTKcHggAQlIQAISkEBOQKGQ03BfAhKQgAQkIIEyAgqFMhweSEACEpCABCSQE1Ao5DTcl4AEJCABCUigjIBCoQyHBxKQgAQkIAEJ5AQUCjkN9yUgAQlIQAISKCOgUCjD4YEEJCABCUhAAjkBhUJOw30JSEACEpCABMoIKBTKcHggAQlIQAISkEBOQKGQ03BfAhKQgAQkIIEyAgqFMhweSEACEpCABCSQE1Ao5DTcl4AEJCABCUigjIBCoQyHBxKQgAQkIAEJ5AQUCjkN9yUgAQlIQAISKCOgUCjD4YEEJCABCUhAAjkBhUJOw30JSEACEpCABMoIKBTKcHggAQlIQAISkEBOQKGQ03BfAhKQgAQkIIEyAgqFMhweSEACEpCABCSQE1Ao5DTcl4AEJCABCUigjIBCoQyHBxKQgAQkIAEJ5AQUCjkN9yUgAQlIQAISKCOgUCjD4YEEJCABCUhAAjkBhUJOw30JSEACEpCABMoIKBTKcHggAQlIQAISkEBOQKGQ03BfAhKQgAQkIIEyAgqFMhweSEACEpCABCSQE1Ao5DTcl4AEJCABCUigjIBCoQyHBxKQgAQkIAEJ5AQUCjkN9yUgAQlIQAISKCOgUCjD4YEEJCABCUhAAjkBhUJOw30JSEACEpCABMoIKBTKcHggAQlIQAISkEBOQKGQ03BfAhKQgAQkIIEyAgqFMhweSEACEpCABCSQE1Ao5DTcl4AEJCABCUigjIBCoQyHBxKQgAQkIAEJ5AQUCjkN9yUgAQlIQAISKCOgUCjD4YEEJCABCUhAAjkBhUJOw30JSEACEpCABMoIKBTKcHggAQlIQAISkEBOQKGQ03BfAhKQgAQkIIEyAgqFMhweSEACEpCABCSQE1Ao5DTcl4AEJCABCUigjIBCoQyHBxKQgAQkIAEJ5AQUCjkN9yUgAQlIQAISKCOgUCjD4YEEJCABCUhAAjmB/weXeW3RP51a8gAAAABJRU5ErkJggg==;" vertex="1" parent="1">
          <mxGeometry x="520" y="60" width="184.78" height="240" as="geometry" />
        </mxCell>
        <mxCell id="NYJ3iIu9TDfo5SahPkcP-30" value="" style="shape=image;verticalLabelPosition=bottom;labelBackgroundColor=default;verticalAlign=top;aspect=fixed;imageAspect=0;image=data:image/png,iVBORw0KGgoAAAANSUhEUgAAAioAAAEACAYAAACd711+AAABYGlDQ1BJQ0MgUHJvZmlsZQAAKJFjYGDiSSwoyGFhYGDIzSspCnJ3UoiIjFJgf87AwyDMwMdgxcCamFxc4BgQ4ANUwgCjUcG3awyMIPqyLsise2u1VBf9aqgNrKmc3llWaIGpHgVwpaQWJwPpP0BsklxQVMLAwGgAZAeUlxSA2A1AtkgR0FFA9hQQOx3CXgFiJ0HYe8BqQoKcgewLQLZAckZiCpD9AMjWSUIST0di5+aUJkPdAHI9T2peaDCQlgBiGQYXBlcGHyBUYAhlMGIwB2JjhkAGVxx6TMB6nBnyGQoYKhmKGDIZ0hkyGEqAuh2BIgUMOQypQLYnQx5DMoMegw6QbcRgADITFNboYYgQa2liYLD5D2ScR4j5AvGmyUCrqxFiqiFA7+QxMBx9UpBYlAgPWcZvLMVpxkYQNvd2BgbWaf//fw5nYGDXZGD4e/3//9/b////u4yBgfkWA8OBbwCdPGSXGgpYvwAAAIplWElmTU0AKgAAAAgABAEaAAUAAAABAAAAPgEbAAUAAAABAAAARgEoAAMAAAABAAIAAIdpAAQAAAABAAAATgAAAAAAAACQAAAAAQAAAJAAAAABAAOShgAHAAAAEgAAAHigAgAEAAAAAQAAAiqgAwAEAAAAAQAAAQAAAAAAQVNDSUkAAABTY3JlZW5zaG90vCcSvAAAAAlwSFlzAAAWJQAAFiUBSVIk8AAAAdZpVFh0WE1MOmNvbS5hZG9iZS54bXAAAAAAADx4OnhtcG1ldGEgeG1sbnM6eD0iYWRvYmU6bnM6bWV0YS8iIHg6eG1wdGs9IlhNUCBDb3JlIDYuMC4wIj4KICAgPHJkZjpSREYgeG1sbnM6cmRmPSJodHRwOi8vd3d3LnczLm9yZy8xOTk5LzAyLzIyLXJkZi1zeW50YXgtbnMjIj4KICAgICAgPHJkZjpEZXNjcmlwdGlvbiByZGY6YWJvdXQ9IiIKICAgICAgICAgICAgeG1sbnM6ZXhpZj0iaHR0cDovL25zLmFkb2JlLmNvbS9leGlmLzEuMC8iPgogICAgICAgICA8ZXhpZjpQaXhlbFlEaW1lbnNpb24+MjU2PC9leGlmOlBpeGVsWURpbWVuc2lvbj4KICAgICAgICAgPGV4aWY6UGl4ZWxYRGltZW5zaW9uPjU1NDwvZXhpZjpQaXhlbFhEaW1lbnNpb24+CiAgICAgICAgIDxleGlmOlVzZXJDb21tZW50PlNjcmVlbnNob3Q8L2V4aWY6VXNlckNvbW1lbnQ+CiAgICAgIDwvcmRmOkRlc2NyaXB0aW9uPgogICA8L3JkZjpSREY+CjwveDp4bXBtZXRhPgqYimSkAAAAHGlET1QAAAACAAAAAAAAAIAAAAAoAAAAgAAAAIAAAC39tRQYbgAALclJREFUeAHsnQd8FFUex/+ho/QigiIggiggiAiiIqIIKCQg9oaep5ydExRR1ENULCiWQ0RB9Dyx6ylSFemooCBVECSQhFCkk1CSINz7vfCGt5PNpu3s7pDfnw/Z3dmZN2++O8n89t8mbvHixYfj4uLkr7/+EtjevXtlw4YNkpCQIIcOHdLL+IMESIAESIAESIAEokEgbsmSJYfNjiFWDhw4IImJiXLllVdSqBgwfCQBEiABEiABEogKAS1USpQoIVlZWVqY7N+/X3tUunfvHpUJcackQAIkQAIkQAIkYAjELV269LAywX+Eevbt26eFSnx8PD0qhhIfSYAESIAESIAEokJAC5WDBw8KvCoQKshRSUlJkR49elCoROUj4U5JgARIgARIgAQMAS1U8MIk06anp0tSUpJOpkWSLY0ESIAESIAESIAEokVACxV4UhD6gSFHBR6Vbt26OcuiNTnulwRIgARIgARIoHgT0EIFnpPMzEwtTIxQYeineJ8YPHoSIAESIAESiAUCjkfFTMYO/ZhlfCQBEiABEiABEiCBaBDQQgVhH+So4BF9VJCjgqofGgmQAAmQAAmQAAlEk0BA6AeVP/CoIEcFDd9QDRQNg1jauXOnpKWl6ZyZaM0jGsfOfZIACZAACZBAUQmUKlVKypcvLxUrVpSqVatKuXLlijpk1LbXDd/gSTFt9JGjsn79el2ebBJsIzU7CJRNmzbJjh07IrVL7ocESIAESIAEjnkC1apVk9q1a/tSsDidaZFMC4NYiIZQ2bZtmw45HfNnCw+QBEiABEiABKJEoF69elKjRo0o7b1wu3WSaeE9MTkq69at06Ef01ulcEPnfyt4UTZu3BiwQfXq1aVmzZpSuXJlXyrAgIPhCxIgARIgARKIIAE4HXbv3i1bt26V7du3B+y5Tp062rsSsDCGXzhCBaEf5ILYd0+OROjH7UlBPK1hw4ZaoMQwN06NBEiABEiABHxBAIJl7dq1Ou/TTNhPnhUtVOA5QSIthAmSaZOTkyPSQh+Kb8WKFYabwIvSrFkz5zWfkAAJkAAJkAAJhIfA8uXLA7wrTZs29UXEIm7ZsmVKnxzWd08GCtPwLRJ3T0aIySTOwpPSqlWr8HwaHIUESIAESIAESCAHgUWLFjmeFSTYNmjQIMc6sbYgbvHixbp3Ptrow8zdk9FC30tze1NatmzJcI+XwDk2CZAACZBAsSeAMJC67jsc/OBV0aEfk4uCEFCk7p5sJ9Ay5OOcM3xCAiRAAiRAAp4SsENAfkisdcqTkUgLoYIyZYRkEhISPAW1evVqx/3UpEkTqVWrlqf74+AkQAIkQAIkQAIiW7ZskVWrVmkUSLto3LhxTGNxGr7Bq4L/puFbz549xYSDvDiCJUuWOJ1v27Zt64uEHi84cEwSIAESIAESiCQBpF7Mnz9f7xIdbFu0aBHJ3Rd4X3HKBXQY3hQjSnAA8Kj06tXLERIFHjUfGyxcuNBZq0OHDs5zPiEBEiABEiABEvCWwKxZs5wdnHPOOc7zWHyic1RMDxWEfiBU0JkW9/ox4sWLiVOoeEGVY5IACZAACZBA3gR8JVRM1Y+5148RKshRMUm2eR9ywdegUCk4M25BAiRAAiRAAuEg4CuhsnTp0sMQKVlZWVqYoOonNTVVJ9PSoxKO04FjkAAJkAAJkEBsEfCVUFFJrYfRlRZCBYIFybTIUenRowc9KrF1XnE2JEACJEACJBAWAr4SKuhMi2RaGDwoGRkZESlPZugnLOcaByEBEiABEiCBAhPwlVBB6MeUJkOoRKrhG4VKgc8rbkACJEACJEACYSHgO6FiclRw9Aj94KaEXt/rh0IlLOcaByEBEiABEiCBAhPwnVCBRwWlyTB4VCBUvG74RqFS4POKG5AACZAACZBAWAj4SqggmdaEfuBZSUtLk5SUFJ1My6qfsJwPHIQESIAESIAEYoqAr4QKkmlBD1U/MIR+kpKSdHkyBIxXRo+KV2Q5LgmQAAmQAAmEJuAroYKGb/Ck2KGfDRs2sI9K6M/Y1+8O/2i5jPt2raryKroQrVGlnIx9rL3UrXW8r5lw8iRAAiRQnAj4Sqgg9GM+HNNCPzExkS30DZRj7HHpHzvktmfmhLVHzgVn1ZIR/dsdY6R4OCRAAiRw7BLwnVAxDd+Qk4LQDzwqrPo59k5QeFBuGjxLViXtkjt7nC739DrDOcgPlYdl2Lhl0q75CTLyofOd5XgCcXPr07OlWqWyMvXVLlKqZAn9/q60TOnxyDTZszdTXn6grVxyTu2A7fiCBEiABEggNgn4Sqi4+6js27dPC5X4+HjelDA2z69Cz+qT79fJ8+8vkdo1jpP/PXeplC1T0hnr6kHTZe2GPfLS/W3k0tZ1nOXmybWPT5c1KXvkxXvPlcvanGQWy2fT18nQ/2SP+aUas5w1prMSn0SEwCGVU/bD0j9l0/Z90qXtyVLp+NIR2S934j8CPFf895mFe8a+EyroTAuvChu+hftUiJ3xdqZlaO9H2t4sGd63rXRsddT7sXjNDvnbM7MF+SaTh3d2PCb27D/+LlFe+GCptG16gowacNTjgj94Nysvzcr1u+SOhNPl3quOemns7b18jn1/Nn19jl2ULBEnJ1QtJyedcLw0qFNBzqhXJcc6x9KCL2eul6ffXawPqdXp1eUdlTt0rFvS5nRZ9Pt2WaNE9h9KSCdvSZc6Sog3PqWyNK5bSc5rdoJ+Hascpvy0QRb8ti3H9CqUL6XnXafmcdmP6piOK1cqx3qFXVAcz5XCsjpWt/OdUMEHYZJp09PTnaofJNl6Zaz68Yps8HEHv/OrfD07SYLlkzwxepFMmJsst3dvLPdfc2bQAdL2ZUnnvlMkI+uQjB/WSU6ueTR5dtnanTo0VLpUCfns2Y5ySq0KQcfwauG0nzfKwyMW5Dn8uWfU1MfXvGHVPNf14wrwbMHDBatwXGmZOeIKKVnSu9/haDJCGPOdb1bL2+N/l4MHD+U6lfJlS0m/G5rJ1R3r57pONN94/r9L5ZNpiXlOAX+Lu7Q9SYdrw5G4XpzOlTzhFtMVfCdU4EkxpcjIUUEflW7dujnLvPgcKVS8oBp8TJNACyHx+bOXBFTohBIg7tFCCZqnlBD6Khch5B4n3K/zK1Sw3xLKyzJqwAVy7hk1wj2NqI+XuDFNBo1aKH/u3C/3KM/WVRfXj/qcvJhAypa9MuithbJs7Y4cw5cpXVIys7KbV9pvXtTyRBnSp5VUPr6MvTjqz/MrVMxES6nf4Ssvqif3Xn1GkY6luJwrhhsfcxLwnVCBWs/MzNTCxAgV3D2ZDd9yfrh+WxIqgRbHkltIJ9hxhgoRIbTU85Hvo5JYawuVqirh93/PX6qnn5F5SDarfI1Zv26WD79bKwcysi9gNVWI6zMl2CpXiK2LVjDmhVmGcFwJD72hhZlTuLb566/Dco3Kl1qnRJmxsxtXl1suP02aNqgq+GxTt+2Vlet2yaivVkli6tH1ul9QV57uc47ZLCYebaECb+dDNzbX88pSXqLUrXtlw5/qWJJ2y1QVIvrLaifQ4ewT5dV/nlfkYziWz5UiwznGB/CdULEFiR368fJzokfFS7pHxw6VQIu1ckuSPTpC4LNQSbefqmTd544k60YysdYWKtUrl5Npr3cNnLR6NX3hJun/+nxn+TPqgtVNXbho/iLwwZQ/5GXVB8jYTV0ayoPXNQsa4tqvhOmQsb8K8kCMjR3UXiBsYsVsoYIE6OfvaR10akhkR47YwlVH81kG39FKerQ/Jej6XEgCeRHwnVBB2Ac5Kng8cOCAzlFB1Y+XRqHiJd3ssUMl0GKN3MqOQ80sVBlztBJr8yNUcExX9P9WNm3bpw8P38D7Xd8s1KEKLnTrN6dJnerH5ep92brrgPyhEjnxTb5+7QpBE5FD7kS9uX1Phv7mj9yZ3Kqm4EHAvk47uZIuE89rzEi+Dy/HSlXyXqF8ac0g2L73HTgoyxN36rkXmtNueO2mSfr+7C7aF7aoJf/uF7p/DzwTPQZM05VQmFfjupXloyEX6xBgsHnay7CfFYm7dEJ2vRMr5GsbbJ+p9okKOoRVG6mE3qoVy9rDBjzPr1DR46r8MHxRSFEJwzDw/lJ5D3HuhTJ8Pus2pcnxKhkXFX+RtHD8fkRyvsVpX74TKib0g8ofeFSQo3LllVeqJLWDnn1uFCqeoXUGfkEl6n2cj0Q9Z4MwPkGuwISXLsvzj2g4dplfoXLn83Pll5XZ30hRYo1Sa9jq5N1y3RMz9HNUCv3ybg+Z+EOKKuVeqi+KFVWZ7+yR3fT7+KH0vIyb+oe8N+kP2b77gLMcOUBIeBx4Sws5XlVt2BZsH7MXb5ZXP1nhhDHKlS0p7VSVyqBbW0r1ymUFwu/Vj1fI1PmpOu/EjNce+Rbq23SVioGhKyMisV7bpjV1Lo7Z5j+T1uh94XWwhGosR8UMLurGfh6bECC8+imP1AzlmYIhB6Z319MESdo4DggRWIM6FeVm5eXodSQ/BuLklY+Xy1KVcG2SXnGBffxvLTUrvVE+f4xRybNvfP6bXhu5Rp883VELt7w2tytcsO5HQzpKk3qV9Wb254IFv/6npyxRVXAvjluq+g3tdro3V1Fi4xmV4wJ2uRnCNKi6WrR6u3OsWBfiYNCtLYJuWxChgrHmr9gqd704D0+1PfMP5Rk8/6hn8KJ7Jgoq+2DwHuGcemTEz5Ki5gYDM1REBTtXDv51SC7rO1V2qTAu7L6rz5S/xzfWz90/TL4all9yTh3VR6mNs0phfj+cjfkkYgR8JVTMTQkhVuBVQY7K+vXr9U0JTYKtF+QoVLygGjjma5+ukPcmrglcGKFXKKWEUAn1bTJcU8mvUOn20LeycWu2R6VPzyZy95VN9BTsixWEylcvdpJrHpsuBzKzc1psobJbNbcbOPIX+Wn5n7lOv64qhx796IVSq1p5Zx33Pl578Dx58LX5gm/8bsPFEJ6CYR8uk49UI75g1rxhNXn/yYsC3gp28TErhFuooBQdIiQYBzAco0qjq1Uqo6rB5jgXPjMX8/iGaix4vmowmF9DAu0kJSBh7jL5UGPAw9Huzm8c0fHc3a2l63kn603szwULxg2+WP7xwjzHa2OPi7+RowdeIOc0yZmIjfASRIoRbPZ2eI5tUbrvvvAXVKhgrO4PfafzV/D8diUk7leCwpgtVN4eeKEOF8G7YyyUUME69pebM1XOz7jBHcymziPO2UsfmOwIotfVudpeebdghf39cAbnk4gR8J1QgScFybQwhH4oVCJ2rni6I/yB7qO8CPiGeNZp1fTFs4z61m8M/Sf+PnSO1FS9RqYM75Iv17bJQ0Gp79vqj7ZtMxYhD2SB+qMsMlx1qkXCXyQsP0LF/U3U7qRrX6xwkcVF8KcVf0oLxQxiY3XKbvliaHaC7pOqlPsbVcoNa6jCMANuai5nNqiiBdAryjtiLtwJKnfgKeX1MGbvA8vKKo9TS5UrcX2nBspzkp3U/PPKrWZ1aXNmTdVfY6u6kNeS69Q6uDhAiOAzM/am6mdznpqrsUgKFcwfn/PdqrvxGfWryIp1O2XUl6tU+Xq2uEP/jzj1b4cKa93Tq4n+Fg9hM+p/qxxx1qJRNXnv8UCxZY4l2CO6Kv+m9gO7vtOp8sgtZwVbLeiyrg9OlS079uv3+qiuzJg3zP25VFJVQSdWLy+9VWiwtgr5Lfx9m7z99dES6NaqWmy0EgC2rd+UrnO98Bnh/IF46NG+npRX3gwkcqPj8/6Mg4KKnS/VeWSXFxdGqNzz0g/y47JsodxRdYPG75oxW6ggNDZ3yRbt5WqqztHfVL+h5+5qnatHBWP8ppKQbxo80wwnk1/pIidaghtvYMz7h/+o1zmhanndewkeLlhhfz/0xvwRUQK+EiroTGvKk02Oyrp163Tox/RW8YIePSpeUM05Ji4UNz81S+dmwEUMV7FtiPmjaRa+4aOEMy+78V8zdXO3oeoP3uXtsr+VYhv8wcc9hPAHue+1TeW2bo3yGips74cSKnBD49suEjBNmAbhiY+eutjpzOu+WOGC8qzi1NnqwIvJGmGH5wjzTHq5s26Sh9cw5DR0vG+ydvvjDzcSipHbAHPvA8LxnccudEIryCO4cuA0x0WPbfDN/S1VSm16oUB44oK7U32mMHffm0gKFezffc6MVwLuX0rI2eYWU+5k2PljEqRM6aPi2d7W/bz9XRMdT8eAm8+SGy471b1Krq9vf3aO/KpCMrDcwn54r4lqCvifJy4KmNN/VQIvbuRpbN5b3QOar8EDA1EJw5wwN9tsz6b7d7AwQsX2euD8+uqFTs7ubKGChUg27n9Dcy0qnZXUk1DnSq9Hv3fCkY+oY7nexdn0ZMJ48BAhRAQryu+HHoA/IkrAl0IFrknkpOzdq0rijtw9maGfiJ43nu0MFQO3qc6zcEs/cE1T+Vv3oyICoSH8Ib1Ydap9RXWsDWWI2d/w5AzVmr2MfPdaV+ePOZJBb1HfdtG6vfuFp8jTdx71JIQaL1zv2UIFIqP5qdkN3ZDMmKpCPRBPxvD+f5/s4OQoYLlbRPRQfSoG//1ss4nz+LCK9U/7OVW/jlfHOSTIcd714g8qjyD7265dleHeB1iDuW3wNrylSmqNobMsOszahiqW/81K0osgFCEYjYW6+IQ79HO6yvH4WOV62AYhBTFh+pgE87rBqwGxZexrFWbLT4NAnLsX/GOC2UyeUuwT1GeQX3vglZ9kjsqlgSHsg/APzP254Oaa7jyU3emZcvG9k/T6+PG58oo0PKmifr1WlT9f/dj3+jnE6ddKNJysQn+2mbJ+LIOXZtLwzs7bhREqLyoPjQkJIln302cuccazhUpd1XjxqxcuDVqqHupceXfCGnn9sxV6TPdniDyWS++fotsQ4JoxXn1+5niL8vvhHACfRIyA74QKPCcI/0CYIJk2OTlZ56jYZcvhpkePSriJhh4PLmgkQ8LDMFwlvpmL5HZVSdHlyIVjqnLzIokzNzN/VG23Oy5Odz43V1cQwZWPuLgdXsptrHAut4VKqHFR8TGw91k5ylPdFyt8o4bHw21XqQuS6cvR+/JGcuqRi5W93mzFefrCjXqRfeNH9z4g9HDLAtsQUoLrHFayZAlZMCY+RzgOQgaCBuZOmA118Qm3ULmqY315/LaWeh72DzsP6C6VA/QPlQtkGxKEz719vJMvUpBy4Uvun+x4k+wcI3v83J6bsnq8b2/r/lxmqG6+7iRlbAORZPJPbC/RdwtSZcAbP2MVOUV5N+Dlcht6GT2rugb/pS7yEDM/jY7XHjmsZ36n8DxUeTLeN2aHftweGluooMt0sPlgnFDnCsQkKuQwb4Syvv/35U7V2w8q5HSvCj3B3GGwovx+6AH5I6IEfCVUli1bpvTJYcnKys4UNw3fePfkiJ4zEdmZ8Z4g0fVdVRGA7H8YkjpnqvySUCGbzKxD0qlvdgLdx093lNOPbPvE2wtlwrwUXdnwwb86RKV01hYquBCYck2ETNDqv54qG26mvCzdVegL77vNfbGaPuLyHEnACM2c1+ebgGoO9zju1/ZFxN4H5vDL2B453PHI8emnPgsY8iQmq7wht330XaK8qPppwNzfdkNdfMItVIKJEMwJ1VM4Vhi8UvBOua3DPZP0N3IsD+Y1cq9vXt8xdK7OGcFrtzfJrJPbI5JpTXK0Hba0Pxdsi6qfYGbnuNhJwLZwDLZdsGXfDLvM8UIURqhc0U+V2SvvJexBVWKPfBpjtlBx30DUrIPHUOcK3rc9g7b3yvbo2RVHRf39wD5pkSXgK6GyePFi9R1blHrOrj4wd09GC30vjR4VL+nmPrYpK4QL+gOV0V9NdXJFeWlf5RrHN0K4roPZpB83qPbsv+jEUVRGwIyLGMIHSZFwQ0fDbKGSW8O3UPOyL1YQEQtVebLbINTOUxc7Ew4Fv1J53EcHIQST8GnvA99SUQLtNohFiEYYklEnvnQ0RGDWRbk5chRg0RQqKE++U1X+uO16FRr8XYUIYQiNIUTmto4qjLJLhVNgBREqz763RD6fsU5vhyTn8eqCnx/vHXq83PjkTL0dfuD8RQI0zP5c8LqgQmWEKpfGPYdg+D2orn6f8rIRD7Vzwl0FFSrIs0G+jTHbu4NltlAJ5a3KS6hMVF8+HldfQmCmCy7ESCdV7YPPDpVw373a1cnzKurvh94Rf0SUgK+ECpJpzR9fhICQo4I+KmyhH9FzJmI7syuBTKimlLpwdu03VbbuPJDrhaPP8/MEVSmPqX4Q11zSQHtg+kWhwicYqHAKldxEBPZrf5Mdo8qPg5WpBpsfltkXxNz24aVQsS9M6MyKi5jbcHPJ3kNmOYvz6qMSaaGC3jaPqxJlY/1Vu3n0bMnL7nv5R5m3dIteDRVuE4Z1dvKr7M8FKxRUqHw9J1kGj8kO17lDIXnNC+8XRKigqghC0IQfEcr8r/qyYYu1cAkVNDuEKEG4CxVeM964Qpb8sV3uVjlYsGsubSCP9W6hn5sfRfn9MGPwMXIEfCVU0EcF+SlIpIVQQZkyqn4SEhI8JUaPiqd4Qw5uVwKZ5FfzzTDY/VDQyCpBNQIrq6ozvnu9q6og2u8k54YKF4WcRBjfjJRQsas7QjXDCnZo9gUxGkLl+182ykP/XqCnBm/EFJWP5LbPZ6yXZ99b7Cxe8E6Ck0uBhe6Gb5EWKshvuXXIbN2/BfNBE7b3Hm/vVFZhmdvct06wwz5Y1/5c8LqgQsX2cOCO1cg9yq27MMZ3W36Fyt79B+V5FfLDXc5haKiIHifoVGxbuIQKxjTeVzx/6f428uPyP+ULdY7APlRVcyhLt60ovx/2OHweGQK+EyrwqJj/puFbz549nXCQF9goVLygmv8x7UogiI1O59YJECPoHmrMFjGIiZtyZyNyzHrReoyUULHzQ+DmR/MsU/FgHztc5OjyijJoY/YFMRpCxd0fY+TD5+suuGZ++OaMm/2ZhnhYHmtCBXNaqXqB4PxDoicM5ylyJdw9e/D+yC9Xyruqqs2sG8yTZH8uGK+gQiVDNQWEiMcdq2HBPA36DfUDbQDQpdb2gOQlVJDsjp4+r6kePWhHbww3L0TpsdvCKVRQcg3xAcNxoRdRsjqGYBVfWKcovx/YnhZZAr4SKsuXLz8Mb4rJUUHDN3hUevXqpb0sXqGjUPGKbP7HNZVA2AJNo8ZNXavDO4NUNcfVHetjsf4jb8JCiIej4gQN5EzYyP6jqzeIwo9ICRUIEPvOvWiTf1u3xtJa9TtBAu9GdR+hNao5HP5gX2jlpwCJfUGMhlDB3Huonjm4Iy8M3/7vUU3P0Eoe4gTt6XEfJNOwDevEolDBvCBARqsmbLYhZ6jpqVWkhrop5R+pe+R3ldBrWsljPeQujVLnr9sDYX8uWK+gQgXbuENSCAHd2LmhNKhdUVDOi4ZwyANDV127ggbb2kIFd/42Zc8IvUDYpKsSe9vQEh+VPHfEn54jGRvrhVOowIPVTVX/bN6+XwssPOILbbDeKth3UX4/sD0tsgR8JVSQo2J6qCD0YzrT4l4/Rrx4gY9CxQuqBR/TrgS6Vn1rwmskGpqEWTvR9ix107xoV/gEO8JICRXsGyKtvwqhmOZxweaDZXYJN17bF8RoCBXMIVhDNiyHmfvvDByZXWqLZbGWo4I5GcN5+ZS6zxDCmHkZurc+oe4tFOx2DvbngnEKI1TUtVueVHkqJiwTaj4zVa5H5QplnFVsoeIszOVJZ3UfKXg03Z1i7dXDKVQw7r9VsvDYI8nCeI2QE8JblVQybTAr7O9HsLG4zFsCvhIqpuoHYsUWKshRMUm2XuCiUPGCauHGNLFofOvEH3587uaeICYvAT0/tinXc7QrfIIdYSSFCva/Ky1TfxNG8qvtgcB7aIYXf2FdLVTssJB9QYyWUMH8JqvqraHvL3G+qeP3Ht/iH1WJkTWqlC3QTQkjnaOC+duGu4OP+HylLF6zXXkf9uo+Jeb9KkoMNFLJpvgsglUemfXszwXLCiNUzFg4D4erGzCaO3Sb5XhE2OlqlYTe9byTAhqw5SZU4KFDWT06z9ZX/1s0qi64u3ZeFm6hAm8QOiYbs5vlmWXux8L8frjH4GvvCfhKqBiPCvqo4AKFqp/U1FSdTEuPivcnSyzswa4EMvOBRwA3nkMzODSqgqF0N5L38DFzidVH5D7grrQpW/bqb5i47wkuMKblfSzPO1nNGb04EPoJ5mmI1bnnNi+cw6iG2ZWeoYRXJaeXTm7re7l8j7p78VoVfkLfFpwTJ6hKo4oq1FbczK+/H8Xlc/KVUDFVPxAq+HaFZFrkqKA8mR6V4nLKivakmCRZHDU8A0jWe1PlAxiLhQofMxc+kgAJkAAJFJ6Ar4QKOtMimRYGD0pGRgbLkwv/2ft6S7sSCAeC++IcVN9UYbFS4aMnwx8kQAIkQAJFIuAroWIavsF7AqHChm9F+ux9vzHyLpAsCretsViq8DFz4iMJkAAJkEDhCfhOqCDkY9/rBzcl5L1+Cn8C+H1LUwmE40Dfh2jdw8fvHDl/EiABEohVAr4TKvCmoOIHBo8KhAobvsXq6RWZeQ1Tt5Kfq9qOv3Rfm6jdwycyR8q9kAAJkEDxI+AroYJkWggV/IdnJS0tjff6KX7nLI+YBEiABEigGBHwlVBBMi0+Gzv0k5SUpMuTIV68MvZR8YosxyUBEiABEiCB0AR8JVTQ8A2eFDv0s2HDBvZRCf0Z810SIAESIAES8C0BXwkVhH4MadOZNjExUdhC31DhIwmQAAmQAAkcWwR8J1RKlCihQz8oT0bDN3hUWPVzbJ2UPBoSIAESIAESMAR8JVTcfVT27dunhUp8fLynNyVUnhzn7sxt27aVcuXKGX58JAESIAESIAES8IgAbj48f/58PXqpUqWkRYsWHu0pPMPGQaigMy28KpFs+LZ69WpdYYTDaNKkidSqVSs8R8RRSIAESIAESIAEciWwZcsWWbVqlX6/YsWK0rhx41zXjYU3tFDBREwybXp6upiqHyTZemWbNm2SjRs36uGrV68uzZo182pXHJcESIAESIAESOAIgeXLl8v27dv1qzp16kjt2rVjmo0WKvCkmFJk5KikpKRIt27dnGVeHAFcTytWrHCGbtmypVSuXNl5zSckQAIkQAIkQALhJbB7925R1b7OoE2bNo351AstVOA5yczM1MLECBXcPRkCxkvDXZp37NihdwH3U6tWrbzcHccmARIgARIggWJNYNGiRU7aRbVq1aRBgwYxz8PxqJiZ2qEfs8yrR7dXhSEgr0hzXBIgARIggeJOwA75gIUfvCmYpxYqCPsgRwWPEA/IUUHVTyRs27Zten9mX/CsNGzYkGEgA4SPJEACJEACJFAEAgj3rF271vGkYKh69epJjRo1ijBq5DYNCP2g8gceFeSooOEbqoEiYXZirdkfvCs1a9bUgoWly4YKH0mABEiABEggbwJwOkCgbN261UmcNVv5IYHWzBWPceamhKaNPnJU1q9fL8hRMQm29gZePXd7VrzaD8clARIgARIggeJKwE+eFPMZaaECTwqSaWFQYdEQKmbf8K6YBFs9If4gARIgARIgARIoEgEkzqIM2Y8RCieZFt4Tk6OCahyEfkxvlSLRKcTGEEs7d+7U8TR4eCIVgirEVLkJCZAACZAACcQcAXScLV++vCDvs2rVqr4UKAaqI1QQ+oEg2Lt3r26hn5CQENHQj5kQH0mABEiABEiABEjAENBCBZ4ThH/gUUEybXJyss5R8bqPipkEH0mABEiABEiABEggGIG4ZcuWKX1yWN89GSuYhm9e3z052GS4jARIgARIgARIgARsAnGqle5hLDDeE3P3ZLTQp5EACZAACZAACZBANAno0A88KjCEgJCjgj4qkWihH80D575JgARIgARIgARin4BTnoxEWggVlCmj6gfJtDQSIAESIAESIAESiCYBp+EbvCr4bxq+9ezZ0wkHRXOC3DcJkAAJkAAJkEDxJRCnblJ0GN4Uk6OCHibwqPTq1Yv9S4rvecEjJwESIAESIIGYIKBzVEwPFYR+TGdaNHwz4iUmZspJkAAJkAAJkAAJFDsCTtWPudePESps+FbszgUeMAmQAAmQAAnEHAHHo5KVlaVzVFD1k5qaqpNp6VGJuc+LEyIBEiABEiCBYkXAqfqBUIFXBcm0yFGJ9N2TixV1HiwJkAAJkAAJkEC+COjOtOamf/CgZGRksDw5X+i4EgmQAAmQAAmQgNcEnIZvKE2GUGHDN6+Rc3wSIAESIAESIIH8EgjIUcFGCP3gpoS8109+EXI9EiABEiABEiABrwg4HhWUJsPgUYFQYcM3r5BzXBIgARIgARIggfwSCOhMi2TatLQ03usnv/S4HgmQAAmQAAmQgKcEdDIt9oCqHxhCP0lJSbo82dysUL/BHyRAAiRAAiRAAiQQYQK64Ztp9oZ9I/SzYcMG9lGJ8AfB3ZEACZAACZAACeQkoEM/ZrFpoZ+YmChsoW+o8JEESIAESIAESCBaBAIavqE8GaEfeFRY9ROtj4T7JQESIAESIAESMAScqh/TR2Xfvn1aqMTHx/OmhIYSH0mABEiABEiABKJCQAsVdKYtUaIEG75F5SPgTkmABEiABEiABHIjoIUK3jR9VNLT052qHyTZ0kiABEiABEiABEggWgS0UEFuiilFRo5KSkqKdOvWzVkWrclxvyRAAiRAAiRAAsWbgBYq8JxkZmZqYWKECu6eDAFDIwESIAESIAESIIFoEXA8KmYCdujHLOMjCZAACZAACZAACUSDgBYqCPsgRwWPBw4c0DkqqPqhkQAJkAAJkAAJkEA0CQSEflD5A48KclTQ8A3VQDQSIAESIAESIAESiBYB56aEpo0+clTWr18vyFExCbbRmhz3SwIkQAIkQAIkULwJOJ1pkUwLQ+iHQqV4nxQ8ehIgARIgARKIFQJOMi28JyZHZd26dTr0Y3qrxMpkOQ8SIAESIAESIIHiRcARKgj9ICfFvnsyQz/F62Tg0ZIACZAACZBArBHQQgWeEyTSQpggmTY5OVnnqLCPSqx9XJwPCZAACZAACRQvAnHLli1T+uSwZGVl6SM3Dd949+TidSLwaEmABEiABEggFgnELV68+DAmZrwn5u7JaKFPIwESIAESIAESIIFoEtChH5OLghAQclTQRyXSLfRRdfTFF1/IlClTdOgpNTVVSpYsKVWqVJE6depIx44dpXfv3lKpUqVo8uK+SYAESIAESIAEIkjAKU9GIi2ECgQDqn4SEhIiNo3PPvtMHnnkEdm6dWvIfU6fPl3OPffcoOsgZFW+fPmg73EhCZAACZAACZCAPwk4Dd/gVcF/0/CtZ8+eTjjIy0P7/PPP5Y477tAiyeynatWqcvLJJ+ueLvDuoLcLzC1UVH6NfPLJJ/Ltt99Ku3bt5LXXXjND8JEESIAESIAESOAYIBC3fPnyw/CmmBwViAJ4VHr16uV5C/2MjAypW7euFkdgecopp8iIESOkQ4cOugoJyyCefvvtNy1C7rrrLmnVqhUWa3v44Ydl1KhR+vntt99OoXKECx9IgARIgARI4FghoHNUTA8VhH5MZ1rc68eIF68Odu7cuXL55Zc7w8+bN0/OOuss53VeTyhU8iLE90mABEiABEjA3wScqh9zrx8jVJCjYpJsvTpEeE8effRRPXzp0qV1jgoSaPNrhRUqu3btkt9//12LstNPP11OPPHE/O7SWQ9eqNWrV0uFChW0J8h548gTcERCMHrSoEfNqaeeKieddJLjKXKv736N2xgkJiZK8+bNpWbNmu638/V6z549snTpUilbtqw0bdpUjjvuuHxtx5VIgARIgARIIFYIOB4V9FGBMEHVDy6wECpee1QmT54s1157rcPiyy+/lMsuu8x5ndsTXPRDJd5CPGzatClgcyQJv/LKKzJ69GjZsmVLwHuoLLrttttk0KBBUq5cuYD38AL5Mrt379bLkQ+DpF1UICFEBvvhhx+0oMDzGTNmyJgxY2TSpEk5Qmf169eXF154Qa644gqsmsPg0Xr66aflnXfeEYgpY40aNdJjQlz16dNHL27RooXAIxXMvv/+exkwYICsWbPGEZsQokhEfvvtt6Vhw4bBNuMyEiABEiABEog5Ak7VD4QKLmZIpsUFOBJ3T962bZs0a9ZMiyOQqVy5ss5RQSJvKCuoUFF5OFqI4EIfyiAIkJyLR9tsoTJx4kR56KGHZOXKlc4qRqhs3LhR4KHJyz799NOAkBfWT0tLk5tvvlknDAfbHmxuuOEGJycnmFCB0ITYgqcqN2/Y8ccfLx9++KFccsklwXbDZSRAAiRAAiQQUwR0Z1qEMWDwoCDBNZLlyWPHjpW+ffsGQEEFT//+/aVz585aPAW8qV7gQozGdPDI/PLLL/ptJNmaJnVlypSRf/7zn3o5PCnnn3++DvVgAS7U2F/r1q11KTbyYt58803H+4F1p06dqrc1P2yh0qVLF/0+BAn2+euvvwqOASEaI1TguUByL8ItCNvAuwIvCZKCYUgahniCMDQ2ePBgefnll81LQWdgCLZatWrJ/PnzZfjw4fqYzQrBhMq4ceMECccweIngvQFDeMngSXn99df1e/CogFupUqX0a/4gARIgARIggVgl4DR8wzdwCJVoNHzDRRR9VIxgMrDatGkjw4YNC6j0Me/hMT85Ks8995wMHTpUb1atWjWZNm1aDo8JwjW2Bwmhm+uuu87ZlS1UsPDee+8VjGsLDSzfsWOHfPPNNzos5H7vxx9/1KIB68Hg3UEjO5jbswQh9cwzz+j3zA/VQVh7QcytDtxCZefOnXL22WfL9u3b9SYQLe5eOBdffLEsXLhQv//GG2/oeZrx+UgCJEACJEACsUggIEcFE0ToBwmgkb7XDzwTEB7wHtiGCz4SbgcOHJhDGORHqNhhIlz83d4bsy+EVSZMmKBfwjPz8ccfm7cCclQwHuaKBNmCGETgaaed5uTWwMvSvn17PQREA44PVqNGDVmxYkXQxNcHHnhA3n33Xb2eW6hA7MELBauvcmGWLFmSY44QfUOGDNHr3HjjjfLWW2/p5/xBAiRAAiRAArFKwPGoIJETBo8KhEqkGr65wYwfP16HOcw3f/P+TTfd5ORnmGV5CRV4GRBmMbZq1SpdeWNe248ffPCB3H333XpR48aNHc8DFtgeFYRojCCwt7efg+WiRYtkwYIFunIH1Ttr167VXA1nCCETqsJ4EBqwW265RUaOHGkP5zx///33tTcHC9xCpV+/fjpRGO+h5NvtTcFyJNcihARDeA2JwTQSIAESIAESiGUCAZ1p4b1AUmc07vXjhoQQCrwMEE3GkAtyzTXXmJd5hn5++uknp4oIJbp//vlnDi+DGWzWrFmOF8ldKm0LFYgF9JgJZvCaIH8GuSEoDQ5ltlC56qqrHNGAZFjjXXFvj6qoW2+9VS92CxVUEs2ZM8e9Sa6vUSoN4UYjARIgARIggVgmoJNpMUGT+4DQT1JSkv5GnlvlSKQOaPPmzVpooKcIDDkrKL01lpdHBfkoRlSgh4i7LNmMg8fZs2c7Hg6si32bPBNbqCDRFgm3wcz2jOB9JNt26tRJh3wQMkIejvEU2UIFISDkoMCQ+3Lffffp5+4fuCcSknRhbqGC/ZiwGcJHFStWdG8e8Br5OjNnzgxYxhckQAIkQAIkEGsE/g8AAP//t5pbiQAALdFJREFU7Z0HnBRF2odfskRBgiiIRAUBE5gVUU4UEeQDDKenhxnFiBnMoAIGREVR1DOfivGMZ0IlCYpkUVByDhIlqnz1lFdtz+zsMovuzsL+6/eD6enpUP307NS/31RFxo8fv6VIkSL266+/Gu3nn3+2efPmWfv27e23337z6zL537333mu3336770Lp0qVtwYIFVrx4cf/+2muvtUGDBvnlc8891wYMGJDQVa6jUaNG0brp06db9erVo/fxhRdeeMG6du3qV+2///42bNiw6OOaNWvaqlWr/PsPP/zQDjvssOizsMCxmzdv7pnBc8SIEda0adPwsX9t2bKljR071i+/9NJL1rZtW7982mmn2XvvveeXL7nkEuvbt69fTv4vzmK//faz4cOHR5tcdNFF9uKLL/r3PXr0sBtvvDH6TAsiIAIiIAIisL0SKDJhwoQtofOIlQ0bNtiMGTPs//7v//JcqHC+YsWKhdOnfO3fv7/dcsst/rNKlSrZ7NmzDSFAiwuVM844wx577DG/Pv7fbrvtZmvXrvWrGOgZ0FO1s88+29544w3/0emnn26DBw+ONktHqLz88st2/vnn+31atWplb775ZrQ/C7/88ovVqlXL1qxZ49fHhQrC4qGHHvLrGzZsaKNHj7aiRYv69/H/TjrpJPv888/9qmShgrjp3bu3/+zYY4+1t956K76rlkVABERABERguyTghQqD4ubNm70wWb9+vbeoMCjmdXvwwQf9eS+88EIrX758ltMtXbrUGHRnzZrlPzvxxBMNQRBaz549jWPQ6tWrZ846FD6KXq+66ip74okn/PsqVarY0KFDrXbt2tHnLGCZ4NhbtmzxIgiryaGHHhptk45Qefzxx+3qq6/2+zRu3Ni+/PLLaH8WsPbcdNNN0bq4UHn33XcNcRTa/fffbxdccEF4619feeUVO++886J1yUJl4sSJdtRRR0Xi8plnnrGOHTtG28cXJk+ebE2aNImv0rIIiIAIiIAIFEgCRdwA58bnLX6QxtWzbt06L1TatWsXDXp51fN77rnH7rjjDitbtqzhFsF1Uq1aNVu5cqVNmzbNXn/99cgCQR+efvpp69SpU9QdBAhCJDQEz/HHH2/OSuStLazHgtGsWTNbuHCh3wxBxD6sQ5zhonn44Yf9MhukciGlI1RwFSF2QqMvWHlwUw0ZMsRbTFjetGmT3yQuVFjB9Qe3EO/pxwknnODvy0cffWRPPvmk7bLLLrZ8+XI+tmShwrpu3brZs88+y6K3yGAlwjJWt25dW7ZsmX3//ff23HPP2YoVK7zVxm+o/0RABERABESgABPwQgW3BFYVhAoxKnPnzrWTTz4534RKOnz69OnjB+L4tvQTcYO4irdy5cpFwoT1iBEGfuJbcmoIDVw+FSpUSNgsHaECu9atW2crALp3724jR46MLC3JQgWR0qFDBy/SEk7+vzfHHXecvyeXXnqpX5NKqGCBQsiNGzcu1SGidfvss0+2/Yw20oIIiIAIiIAIFAACXqjQjxBMSzwHcSAE04ZYkLzqJ1YT3Bwff/yxLV68OMtpSpUq5QdnRMYRRxyR5XNW4DbBQhIsJqyrUaOGfffddyxGbfXq1d718uqrryZYabjGOnXq2M0332ydO3eOto8vpCNU2B4hRF9CYCzrKleubF26dLHbbrvNC5lRo0ax2pKFCuvmzJnjBdWYMWO8JYV1WFHatGljDzzwgD3//PORBQnhgsUpuSE6+/XrZ4888kgUABy2KVGihGEpI07n8MMPD6v1KgIiIAIiIAIFloAXKlgDcP/QiFHBUkFGSliXH71HaBDES3bNzjvvbATB8o9Mn621jRs32g8//ODFTv369X3Qak77kA2ESKpYsaIRvFqmTJmcNs/1ZwgWsoAQKcSr5FbwIapwXxFTQ//C/mTy4KaikaGE6yynRj+mTp1qJUuW9OItXZ45HVOfiYAIiIAIiEB+EvBChYGQ2AmESRAq+eH6yc8L3d7Pxb1p0aJFFDCM1eTiiy/e3i9L/RcBERABERCBHAlEFpWwVdz1E9bpNe8JEPSbKvMpnPmpp56yK664wr8lpRsXUrxGTNhOryIgAiIgAiKwIxHwQoWndWJUeKWOCjEqxDKo5R8B4mPICiIFmYJzVatW9dYt3GEDBw708SncHxqWFCwqaiIgAiIgAiKwoxNIcP2Q+YNFhRgV0loJzFTLHwLUPCENOTRStslmCuIkrG/QoIF99tlnWTKTwud6FQEREAEREIEdiYAv+MZgSJwKVhViVCiwRoxK8iC5I114QbuWG264wVfWzU4cEvBLJd7LLrvMyIZSEwEREAEREIHCQCCqTBsKkeH6kVDJzK2n0B2Vc7FoLVmyxLuCqLjLP+JRmEJATQREQAREQAQKE4EomBbrCf8QKjNnzvSun1BbpTAB0bWKgAiIgAiIgAgUHAKRUMH1g9shPnuyXD8F50apJyIgAiIgAiJQGAl4oYLlhEBahAnBtFRIVR2Vwvh10DWLgAiIgAiIQMEiUGTSpElOn2yJJuULBd/yY/bkgoVCvREBERABERABEShoBIqMHz/eF+egjD4tzJ5MCX01ERABERABERABEcgkAe/6CbEouIDyc/bkTF64zi0CIiACIiACIlDwCUTpyQTSIlRIUybrh9mT1URABERABERABEQgkwSigm9YVfgXCr516NDBgjsokx3UuUVABERABERABAovgSKTJ0/egjUliJJQR4WS7tlVSS28uHTlIiACIiACIiAC+UnAx6iEGiq4fkJlWub6CeIlPzukc4mACIiACIiACIhAIBBl/YS5foJQIUYlBNmGjfUqAiIgAiIgAiIgAvlJILKobN682QsTsn7mz5/vg2llUcnPW6FziYAIiIAIiIAIJBOIsn4QKlhVCKYl60ezJyej0nsREAEREAEREIH8JuAr04agWSwoGzduVHpyft8FnU8EREAEREAERCAlgajgG/EoCBUVfEvJSStFQAREQAREQAQyQCAhRoXz4/phUkLN9ZOBu6FTioAIiIAIiIAIJBCILCqkJtOwqCBUVPAtgZPeiIAIiIAIiIAIZIBAQmVagmnXrFljc+fO9cG0yvrJwB3RKUVABERABERABCICPpiWd2T90HD9zJ4926cnq46KR6L/REAEREAEREAEMkTAF3wLxd7oA66fefPmqY5Khm6ITisCIiACIiACIvAHAe/6CW9DCf0ZM2aYSugHKnoVAREQAREQARHIFIGEgm/EpOD6waKirJ9M3RKdVwREQAREQAREIBCIsn5CHZV169Z5odKuXTtNShgo6VUEREAEREAERCAjBLxQoTJt0aJFVfAtI7dAJxUBERABERABEciOgBcqfBjqqKxduzbK+iHIVk0EREAEREAEREAEMkXACxViU0IqMjEq1FFp27ZttC5TndN5RUAEREAEREAECjcBL1SwnGzatMkLkyBUmD1ZBd8K95dDVy8CIiACIiACmSYQWVRCR+Kun7BOryIgAiIgAiIgAiKQCQJeqOD2IUaF1w0bNvgYFbJ+1ERABERABERABEQgkwQSXD9k/mBRIUaFgm9kA6mJgAiIgAiIgAiIQKYIRJMShjL6xKjMmjXLT0oYAmwz1TmdVwREQAREQAREoHATiCrTEkxLw/UjoVK4vxS6ehEQAREQAREoKASiYFqsJyFGZebMmd71E2qrFJTOqh8iIAIiIAIiIAKFi0AkVHD9EJMSnz1Zrp/C9WXQ1YqACIiACIhAQSPghQqWEwJpESYE086ZM8fHqKiOSkG7XeqPCIiACIiACBQuAkUmTZrk9MkW27x5s7/yUPBNsycXri+CrlYEREAEREAECiKBIuPHj99Cx4L1JMyeTAl9NREQAREQAREQARHIJAHv+gmxKLiAiFGhjopK6GfytujcIiACIiACIiACEIjSkwmkRaiQpkzWT/v27UVIBERABERABERABDJKICr4hlWFf6HgW4cOHSJ3UF708KhuH+fFYXVMERABERCBQkzggXMrFeKr37ZLb9as2bbtmE97FZk8efIWrCkhRoWCb1hUOnbsmKcl9CVU8ukO6zQiIAIiUIgISKjk/mYXeKEyceLELaGGCq6fUJmWuX6CeMn9ZW99DwmVrTPSFiIgAiIgArkjIKGSO15sXeCFSsj6CXP9BKFCjEoIss39ZW99DwmVrTPSFiIgAiIgArkjIKGSO15sXeCFSrCoUEcFYULWz/z5830wbV5aVHKPUnuIgAiIgAiIgAgUNgJR1g9CBasKwbTEqJCenJcWlcIGWtcrAiIgAiIgAiKQewK+Mi3BtDQsKBs3blR6cu45ag8REAEREAEREIE8IBAVfMN6glBRwbc8oKxDioAIiIAIiIAIbBMBL1Rw+cTn+mFSQs31s008tZMIiIAIiIAIiMBfSCCyqJCaTMOiglDJ64Jvf+E16FAiIAIiIAIiIAI7KIGEyrRYVtasWaO5fnbQm63LEgEREAEREIHtjYAPpqXTcdfP7NmzfXqysn62t9up/oqACIiACIjAjkWgCAXfQrE3Lg3Xz7x581RHZce6z7oaERABERABEdguCXjXT+h5KKE/Y8YMy+sS+uGcehUBERABERABERCB7AgkFHwjPZmCb1hUlPWTHTKtFwEREAEREAERyC8CUdZPqKOybt06L1TatWuXp5MS5tcF6jwiIAIiIAIiIALbLwEvVKhMW7RoURV8237vo3ouAiIgAiIgAjskAS9UuLJQR2Xt2rUWsn4IslUTAREQAREQAREQgUwR8EKF2JSQikyMyty5c61t27bRukx1TucVAREQAREQAREo3AS8UMFysmnTJi9MglBh9mQEjJoIiIAIiIAIiIAIZIpAZFEJHYi7fsI6vYqACIiACIiACIhAJgh4oRIyfrCgbNiwwceokPWjJgIiIAIiIAIiIAKZJBC5fiihjwsIiwoxKhR8Ixsov9uGTb/aTiWL5fq0W7a4aQB++c1Kliia630L6g4/b/jFypQq7u5LQe1hwenXSy+9ZLNmzbJzzz3XqlWrlucdW7p0qXHO6dOnexfpeeedZwcccECuz7t48WLbddddc73f9rYDruUSJUr435i86DsPWfx+KQEgL+jqmCKQWQLRpISkJyNMiFHhB58YlRBgm9ddXLR8gw16a7p9M22FrVizySqVL2kH7lXJup7cwKpX3inb0yNO3h4530Z/u9wm/rDSVq/bbLtXKW0Na1WwW89pkrDfjAVr7c5npySsi785ttmuduZxteOr0l6e4M794KvfW6kSxeyRq5unvV/yhlNmrrKPvlpkP7q+/jB/ra1111O8WFHPY9/6Fe3YA3e1FvtVTdit19OTbdain/9Y536sy5cubjWrlrHjDqpu+7n9CkO777777Ntvv7XbbrvN9thjjzy9ZCbuvOmmm7yor169uhdGRxxxhDVvnv695+/s5ZdfthEjRtjgwYPT7u+nn35qw4YNS3v7yy+/3CpVquQF1YsvvpiwX7Fixa1Klcq255572jHHHGM77ZT931rCjklvuJaHHnrIdt99d/vHP/4Rfbpx40Z7++237euvv7Zly5ZZqVKlrFatWv4haK+99oq2y2lh2rRp9u9//9tKlixpN954Y5ZNZ86c6QUjmYqIlLp16/o+7Lbbblm2RSw9+OCDxj2L95MNYcMD2mWXXWZlypTJsq9WiIAIZI5AQmVahAmun/wUKgiIrvd+Zes3/mpN61W0BjXL249ukJ7wwwpvWRl0zUFWr0a5LIR+/W2L3f38t/bf0QuttLM67FtvZ9ulQimb9ONKW7F2k31wb8uEfb6auty6PzzOSjlrTcniWa0u7Y7Y3S7u0CBhn3Tf0H9EBsf+uP8x6e4Wbbdp82/2xDs/2sufznFP51ushOtfnd3KWlknOBb9tMGWrNjg0se3WIWyJezdfkdH+7FwQb8x9t3s1V7QYHlhf9iE1uGomnb16Q3D2x32NT+FypAhQ+yDDz6wVq1a2d///vdcPcVjuURoMICvXr3a1y/KjVB566237L333ku4j5QW4G+3WLFiWfrSq1cvL6QmTpxoAwYM8OfjoYQWt5iWL1/errvuOi82Eg6exhv6P27cOLv11lsj6xAipXev3rZg4QK/rlGjRv56J0yY4EshdOnSxY466qitHv2uu+6yH3/80QuVRx99NGF7hAXX16BBA/vb3/7mXdYIOVqfPn2yCI5XX33VPvzwQ9/PGjVqJBwLCxkit2nTpta1a9eEz/RGBEQgswQSgmlDjApPKbh+Qm2VvOzi+X3H2PdzVlvXDvUTLBoM2g+/Ns322qO8PXnDIVm6cONjE2z4xKXWyllCev6zsZVwlofQfnJWmV2cVSbePhm72G57apJd3nlvO+WYv+6Je9iEpdbj8Qn+VNsiVFb9vNkuvf9rbxWp4awg153R0ImuSk54/OHv2fzrb/ap6/+HYxbZfZcmuheCUHn2psO8uMHKhFXq47GL7JE3pnuBc8d5Te0YZ43ZkVt+CpV7773Xpk6d6gf2vffeO22sb775pg0dOtRbYnBPrVixwv+N5UaopDrZI488YmPHjrUrr7zSD7SptglCBavPxRdf7DfBwsB0GQgvLBdYRBj4c9MQKA8//LAXbIiF0F555RX773//a/vvv78/X/Hixf1HzCPWt29fL5gQEzvvvHPYJctrODYfYFFJFioPPPCAfffdd16AYa2hTZo0yVjfsWNHX2LBr3T/BVFz4oknWocOHcLqhFdEzgsvvOCFykEHHZTwmd6IgAhkjkAkVHjK4mkvPntyXrt+GKRPuu5zq7xzKXv9ziOtKCaBWDv11hG2cNl6e7tvC6tY7g/hMW76Crv8gbF29P7V7I7zm2bZL3aIaPHNYfPsvpe+s55nN7YTDslqFo42zMUC8TT/vPNL29lZOuYsWWe/OKtHbi0qvZ07CqtQywN2tR5n7eOsQ7mLz0kWKvHuI/QQfO2OqOEEUKP4Rzvccn4KlVtuucXmz5/vB0QsEek29vvpp5+8JYYB85prrjEsD48//ni6h0i53bYKlXAw/uYROTyoIMJwFaXbEDZcU79+/XwMStgP6woiqHfv3pbshnnqqae8ywvBlJ27DBEFr3LlytmiRYu8oEsWKri1ateubd27dw+n9WUWWN+sWTO74IIL/Hqu68477/TW4ttvv92CaIp2+t8CFqbrr7/euKdYV9REQAQKBgEvVLCcYDbmD5pg2jlz5vgYFd7nZVvsXBqdbxpujfasYI9fd3CWU10+YKyNc3ErQ+44MiFW5fpHx9vIycvsmZ6HWt3ds7qFshzIrXj2g5k2+O0fre/F+9vhTaqk2iTX6x58dZq99vlce/zag+zKh8Y5U/pv9lEuXD/E1lwzcJxVqVjKXrj5cCuzU+5ECh3OSai84+J3+r4w1TodvYddeWr6T/65BpG0A/NFLVmyxLshMLFnNzCwG2KYbdmHJ/rwZJx0yIS3xEQsWLDAuzSCUPizQoWBceHChb7PDKwEfmbXglDBlcJAmm6bMmWK1atXL4oFIR6iIAgV+o9oWrVqld1///1+oE7nmr7//nsvULC+Jk9iesMNNxjuFMQF1pB4+89//mO4sAh8JrYnVSNQ+ZNPPvGxQIgnRERcqPD+oosu8qLvjDPOSDgE14KAufTSS/36jz76yMcD4draWmwMbrXXXnvNrrrqKmvSpEnCcfVGBEQgMwSKOFOpGyu2+B8CXhkEMJMm//DkVfe63PWlLXBWkyG9jvSWiXCen9f/Yp1vGWFVnbXl2ZsODattvtv277eN9MG2D1x+YLR+awsDX59uL30y2we7Nq375wNMJ89YZd36f20nH1nDup/W0Npc+3muhcp5fUbbtLlr7LZzm3oX1tauIdXnOQmVAU5IvTp0jsGp2d67pNo95ToGCX7cGQgOPjirgHz99dft3XfftX/+85/WokWL6Bi4MggQxQ0RRC4CuGHDhglPvezAd+3999/3/xApNKx6++67r51zzjkpBQACmqdxntTZn4YQuuSSS7zJfluCaX/44Qe/L8cMfaYfDGhcXzyDiIFu+fLl/rzx/7BAMJjmthUUocLDCRaV+vXrGwIj3fbcc8/ZZ5995sVK5cqVE3YjOBWhkWrAv+eee7yrCXFZoUKFhP14wz3BPXT00Uf7oFc4JQsVtrv66qt9HErcXYX1pWfPnnbCCSfYKaec4oN4EZaHHHKIv5/sl1PjO4zQQUAhpNREQAQyT6DI+PHj/S8+P/z8C7MnU0I/PxqxI2SuHOCyfG7u0sTHlqx0wbC9n5liX3/3k/VwrprWLnsltC9cTEhPFxNyxnF7+uDXhcvX2yQnGla6uIz6NctZ4zoVXfbNH/EqYT8Cb98btcBbVHattJO3YuCy2Za21omoc53IMEfu6R6HektIboUKbqLW3Ye6wXGLt8IQQLstLZVQ2eiCc4nfIcuJoFysVcWKJrrVcjrXtggVBC5mfgaKww8/3IjdwEqB6GXgiQ8mfM/IEiGwkgydww47zFtSiC9w30eXiVLFbx9/EmdbnqgZsBh0GFQ5PhkluB7IWOHcmOzTzfohhoIAS8QUfSD7BQsH8Sf0BesOAy3BmjS4MKjTF/5OcFtgeSFLJPmpPie+4bOCIFRghrjE2nP++eenFKahv8mvZD5xP4g1SW5YvHAHcQ+7devm2WK5xZKCyG3ZsqWdddZZybt5rnfccYf/LcJNw33NTqgEoYRQPfDAA701jHibEDBbs2ZN754L8SnpZvMgdHCD0381ERCBzBPwrh8GDlL7+NHhBzi/XD/h8kdMWmY9B09wP05mVZwFZdmqjcawersLAiUOJd5ecTEXD7nYC1wZMxf8bG8Nnxf/2GpWK2O3OsHT0LmT4q3H4xNt2IQl8VU+i4bjn39SPZcxlGieTtgw6U3PwRxrqQ244kA7oMHv/vzcCpWZC3+2s3uP8v39962HJ50h/bdBqBAsW75McVu+yg3e3//ka8qc3qqWnd+uXkKgcTpH3hahgmBASKR6EmXwj7t0hg8fbv/6178iSwtCITQCS7/88kvr1KmTEcdB43vZo0cPL0gY9OL1SrCCcKyRI0f6bdMVKrh52LZ06dLe2kPabLx9/PHHPi0W0UO8Rbw+x7a6fuLHZzkTQqVq1aq2zz77eOsRNWAQKqTrIlLq1KmT3MVs35OijRWGzJ0uXbqk3I4aMViaEJIVK1b08W8IgNatW9tpp52Wcp+BAwf6DKJrr73Wi102yk6oIBoRE8QL4a7je4RA6ty5sx1//PE2evRoH/+TUyxMqk4888wz9sUXXxiWn112Sd8SmepYWicCIvDnCUTpyTztMCDwQ0Jkfvv27f/80dM4AnEqdz/3rY11gyvpt2S+zF+6zla7QFusLD3+0TghPoW4kCHOnUFsyvLVG73I2NelNZPp8p8R8312TPkyJYzBf+dyf1hMhgydaz+57Skmt94FwS5ylhhiRLCOkAb8hLM6IHK21l5x537I9eGs42vbhe3rR5vnVqh8+s1iu/XJSXaYi5fp5+JmktsoF4Pz3Iezkle7rKW9fJ2Y8EEQKuF9eC3msob2r1/JBw7nNnh4W4QKT7E8mZOym5N1AVFM8COpuZjYSVuNN6wV1LrApcOTNY1Mmeeff95bMELGSnwfrDkcEwtLukIlBKCSXhzPVokfFysQqfoMlGSvhLY9C5VwDfFXBmNcbrh70w2kpW4J94cMmlRVrPkt4Xv0+eef+xgl4o8QN7jOEEu41ZLvPe5G9sGaS9ZOaNkJFT7n9wphi1ghXom4EixjiBgsPsQEsT8NUUZGY6i3Enfr+Q3+9x8WH9ybuMGCNS3+uZZFQATyl0BU8I3T8nRKHRX+mPkBCj77vOrSGlfQ7MJ7vnLCZL1d2qmBdW65R5TB88YX82zAkO9tt8ql7bHrDrIKTnzQbnGD+1A3yFOB9l83Hmq1dk0UF+HzU4+tZZd12ivHrnP+Pi7Y9IvxS2yf2jvbYy4oNqf2lXNFXfvIOJc+XNEeuOxAF1Pxhzslt0Jl1JRldt0j47M9L24q3FXJLTneJAiVuy7czwutX1wq80+rN9lUV1vljS8QZ5usk+N65SnpB9Nui1Bh4GJgJ76Dp2XiC1IF0RJgyQDAIMETeXJj4GEAZF/EBC1kiSQLhvi+uJ343qYrVMjuoAgZqbVYVVK1EFiZnOq6PQuVxo0b2+mnn+4vF+spwoGBnvRlAoOxXKVTKRdXEYG3FE6jWFxyw7qGlQ2X2plnnhkxJgD3scce87FwWE0o0EYjvoi0YoQBsSd8j0LLSaiEbZJf+c4QK8X3AmsO6dIIISx7WPgQKwQBB6tdfH+sKVhVCMaNW+/i22hZBEQg/wgUmTx58haefnjS5R9/xFhU+HFmfV62J9+ZYU+/P8M6tHBFyVxAanJ72AXAvuwCYM8+oY5d4FwYtHv+PdX+M3y+nXR4Dbv+zMSncT5ngL7QFUFr5IQH2Thba+s2/Gqn3TbCx7i8fudRVtVl4KRqcxavs4tcYbcyLn34iesP9tVi49vlVqhQjfeUW4Y7d00Je++eo+OH8su4wbgfod3g6sZgZclOqIQ6KmF7XjnHeX1H25p1v9hgJ/b2dhV702nbIlQ4LnUosKrwveHplkDbY4891g8U4byhzkV4n9NryKohBgI3BTELxB2karnJ+kEMEddQtmxZPzimOh7rxowZ4wfVZHfW9ixU4nVU4tfNfcMqhuUoWCDinycvf/XVVzZo0CC78MILfcxQ/HNifHD5cK9wm8VFB9sFqxmiBNGKpYP0YeJRbr755iwBtrkVKuH8CCS+f1T/RbhgPcPih0uKWBb6QTxKsssruDFzykqKX6+WRUAE8paAj1Hh6SK4fhAqPJnytJHXFpUud412VWjXZBl8wyV/O2uVXeQsLrh5SEWmPePSjJ9wacbdOjaw01vtGTaNXhEex189NFsBEG0YWwjpzvdccoAd2jgxeyFsdsl9X7ug3ZVWu3pZ282V6U9uY1zlW3TFIfv8vj81UeK1X5K3Z1uCaanFkpx+nbwt768fNMFGTlqahVWwqKQSKuzXywUlfzhmobcuYWVKpwWhkmoQYv/ssn74DIsJAx4xI1jnGHyIYQgFtEIRLwaxsI79UrXjjjvOPwEzeBF7cPfddydk4cT3IZ6A4l/pWFSwJDD4UWwMq0B2LQzGWIfOPvvsaLMdUaiQIk6JegJOCXTeWguCEy7wiTdK3hPjg0soVXE1BDhCEVcdYpTzEXC9+267W5WqWUsHYL1hn5AujIAIaenx87LMMRFHZBMhgvht4zsRUq95T8NVxH3kOxYsTP4D9x+Vg59++mnfR+qxqImACGSWQJT1w1MPT8JBqBCjEn+iz4tudnI1VCgPP9hZKJifJ7kxh81ZvUb5gnBv3vV7ue0PXHE0slmyc+2QMdTu+i9ctku5hLTm5GPH31/n6rJgrRjYvbl368Q/C8tnucDXWS4ANt32Wu8jrZrLLsqpEZSL2+lvzatnmZsoeb9tFSr9X/neXne1XoinIa4mnRaESHZmfX7E+TFPTk+OH5vvEa6Td955x2fGYIInmycMEHXq1HUxBD3ju2S7zGCGayJVTEvYKaQOpyNU2IdsHuJkcC/FA33D8XglfZqsIAYyBrTQdkShQkzHFVdc4e8VTJKtIOHawysPM9zTVDVUnnjiCRs1apSdeuqpPqg17BN/xe1HzAol8nG/IUTTbTkFuXK/cPEgVoiL4TcsBNMSMBxvuJiIZ6FAXLyF+853KjeVh+PH0LIIiMBfRyCyqCBSsKDwtMlgwtNQXltUgkBgLhrmpElu77o4jT4uTgMrxb3dfi8dTzVbBE71XXayZ52VJR4nwv5kEN0waLy1coP/bUkTEyYfn/dYNE5x9VpWrd3s5wfKruga22EFya517DnMNruU47f7/F5XhKDd/z28ZbeLn8cHIcax73el8Q9qlNqawwG2RaiQAn3O3V96gZWTtSi5gwRAPvvssymfNvnhZxDgO5LqaTr5WCFolUGCeAWeeLFmMBBiISF+YGstWHgIesV8n9zoC32ib+kKlf79+5tze/oU2ZYuVTZVC3EvyUGVO6JQCRky6QrIUG8EdslpxsyDhGsFi1mqeXNCnBICkSwfXHE5PRQhUPl9IoaFRspzsIzE71tIQ46Xyec3DKFC+jJ1gULDgoxAwdUVKtiGzyijjxsTEZVOvE7YT68iIAJ5QyDK+uGHgBaCafPDovLOSFfX5IVvrbKbTHCQiydBfIRGfEXX+75y6bYb7Zq/N/KF1cJn/V6cam+PmJ/FSkCRuG79xxoTHQ7s3sxCYTcm/ZvnMomSq9gyh04/F0yLlYaZhm9xac2hcSziXZjFOVkMhW3ir7mNUQn7vvjRbHv0zem+zslZLhanS5s6WWqeMHcRtWMoMpdujAr7kCH1ydeLvLsKqxXiKZ1GjBIxA8Rw8GMdr74aMnA4TlyoMEgQIJtsnSAwlkBbgldDVdB4PASDR7xeCscl4BK3DGmzNFKJEQekn/KUGwIw+YyMHywuxLDQ0hUqWAS4Rq6NJ+vk2isUK6No2X777ZfliXtHEyq440jxppR+buIyuBelSpayXr17efbhP6wjxBMhBrDSMNFfaFjasKAQPEsxwbh4CNskv6YTo4Ig4X5yfL4D8UBu7tfKlSu90AmWolBVl1TmNm3aJJwS0Yu1DbdgKkGUsLHeiIAI5DkBX5kWkcIfJD8sPPHyI54q5TAvehPqmzAD8t+a72q7u/gPsoA+cZPqMaMy5e77dN0/wTqBu+iKAd948XFE06p2cKNdDEvL+05wMDdQcpYLn+EOYjvEC3MLLXDpyZ+NW2xzXZAs52Tiw3IuTTm0y9xcQuPdnELnnFjXzm37e2ZC+CzV67YKFaw0bwybZ4+6CQSxrFR0kynWd7NFI6pI0aaYHenaoT18VXPbr/4fVogQo1KvRvmo0B2zRy9xsy4zizIisL+rTEvht9y0EPNBxVFiEBjQmbiOAQbBQcBhXKhQdpz6KAw+mNyxzLE9LhtqlBC0GAYPBkQGMjJOeGJlH9xCvGemXGISkt08Ie6BAmtHHnmkN9lTnwMXA8fHdcHgwyCVLDqyu276jHuKY1KkDjcAQp1YF/rNtTMY07d4256FCuIzWAn4uyfziXtF21pqeZwByyEbiwE9eXLBkGrM7wqZMyFl+JtvvvH3mZRo7hX92VpLR6hwPgQwgjg5pTgE02I9wdrC9/C55553/VjmhXg86wt3FG5Bgo5TWYO21ld9LgIi8NcTiAq+cWiECj9aPB1jUclr1w/n/M0NpgzUT78/02fesI5GDZSzj6/jRUeqqqrEovR6eop94+YCIiU37NP15AYuI2h3/z78h+C51AmPaW6W5nhDHHVuWdPFbtTJMhlgmJ35Mle35NRjth6Euq1CJfQHMTLwjR+MAGKsSPFWyYkXLD7t3eSCe7pg3ngLQiW+rpzLJKrlasIc5ITZmcfVznJt8W2zW+aJkqdsBuzQECAE2BJkmlxCH+GCb5/vDt8jGgIA8z/pynGrDJ/xPcPEzrHC9qwnSJIBk6JgydYZKslS2ZSnZhqBnwQ74nrALbAtJfSphItrCXdEaFh4qH5Lv+ODWPh8exYq4Rp4xbqACOO+UnI+eYCPb5tqOWTvJMfwhG1xrZEWjGsuNL4TZFER25L8nQjbJL9uTaggcAm4xrWY7IbiWLiV+L4yx1D4rhHMjcsnOYssWNJCXEtyX/ReBEQg/wkkxKjwB80TJZVp86uEfvySqUiLy2dX5wLKLk04vj3LlIuf7ubLobIslpGc2tKVG23pyg3OcvGbKyxX2qpV3CnBUhPfFwHFHETpFIGL7/dXLGMBmu0CibHwwKLsTn9Yev6K4+fmGFg/cL3g1kk1L0vysbDIIVYY7CnsRdZPTo2Bg+PzvcOCQcxKTuZ2vqOks7IfReFy2jan8yZ/hnDCZcE10u+/6rjJ59mR3nMvEG3cO1LI4xWG49cJW+4Z1hPYBvdLfJs/s4xw5XvKvQtWu1TH47vJdw0xnKriLA9mZD7RP9xIf3U/U/VJ60RABLZOILKo8EfKDw8/KvldQn/r3dQWIiACBZEAxeKY9oAUdMrpb88tuIiYFBP3opoIiEDBIOCFStzFg68/P1w/R3X7uGAQKES9YEqCB69QXYhCdMvz5VLJ3CGuh7ijVJaKfOnEnzwJWUwE0TLZZXK68p88tHYXARH4kwR8ZVosKQTW8YoZlywNgml5n1dNQiWvyGZ/XAmV7Nnok20ngNuFom0ENec0z9O2nyHv9yROiWw3REq6sTN53yudQQREAAI+PZmFYFXhR2fevHn5UkeF86qJgAiIgAiIgAiIQHYEvOsnfEiAIhYVnizyY1LCcF69ioAIiIAIiIAIiEAqAl6oEN1OdUisKhTQwqKSiayfVB3UOhEQAREQAREQgcJLwBd8C7EoWFTI+kGonHTSSZE7qPDi0ZWLgAiIgAiIgAhkkkBUmZYaCAgVYlTyI+snkxetc4uACIiACIiACGwfBLxQoauhjgrpySHrR0Wvto+bqF6KgAiIgAiIwI5KwAuVkPET0pMp+MacGMEltKNevK5LBERABERABESgYBPwQgXLSQimJesHoZJfc/0UbDzqnQiIgAiIgAiIQCYJRBYVxAoWFGJUZs2alW+zJ2fy4nVuERABERABERCBgk3ACxUECu4f/jHBF0KFrB81ERABERABERABEcgkgQTXD1aVkPVz8skn+7L6meyczi0CIiACIiACIlC4CUSzJ1P0jfl+iFEJrh8F0xbuL4euXgREQAREQAQyTSDBokJnJFQyfUt0fhEQAREQAREQgUDAz54caqhgQUGozJw503D9UABOTQREQAREQAREQAQyRSASKmG+nzB7MsG0cv1k6rbovCIgAiIgAiIgAhDwQgXLCSX0saxQmZY6Ku3atfPvhUkEREAEREAEREAEMkWgyJQpU5zhZIsPpA2un1CZNlOd0nlFQAREQAREQAREAAI+64cFRAr/1q9f7yclbNOmDavVREAEREAEREAERCBjBLzrB4FCDRXSk9etWyfXT8Zuh04sAiIgAiIgAiIQJ+DTkwmkJU4FocKcPzNmzFBl2jglLYuACIiACIiACGSEQJT1w9mD6ycUfCO4Vk0EREAEREAEREAEMkWgyNSpU7dgSQmiJF5HhfVqIiACIiACIiACIpApAj7rh/iU4PoJlWnbt28fiZdMdU7nFQEREAEREAERKNwEfIwKCMJcP8yeTGXatm3bquBb4f5u6OpFQAREQAREIOMEIotKcP+Q9TN//nxr3bq1LwJH3IqaCIiACIiACIiACGSCgA+mDdYUOhAsKq1atbJSpUrJqpKJu6JzioAIiIAIiIAIeAJFvv32Wx9MS5wKAbWbNm0ysn5atGhhZcqUESYREAEREAEREAERyBgBL1Rw7/APoUJlWlw/Bx98sFWsWFEWlYzdGp1YBERABERABETAC5VQlRaxgutnwYIF1qRJE6tWrZoIiYAIiIAIiIAIiEDGCEQWFawpCBXSkxctWmR169a1PfbYw2cDZax3OrEIiIAIiIAIiEChJhDNngwFLCu4fpYuXWqVKlWyxo0bF2o4ungREAEREAEREIHMEvCVaekCc/wgVAimXbFihU9Nbt68eWZ7p7OLgAiIgAiIgAgUagL/D3y+TA0xTv1cAAAAAElFTkSuQmCC;" vertex="1" parent="1">
          <mxGeometry x="530" y="320" width="151.48" height="70" as="geometry" />
        </mxCell>
        <mxCell id="NYJ3iIu9TDfo5SahPkcP-43" value="WebDav" style="shape=umlDestroy;html=1;fillColor=#f8cecc;strokeColor=#b85450;" vertex="1" parent="1">
          <mxGeometry x="160" y="220" width="30" height="30" as="geometry" />
        </mxCell>
        <mxCell id="NYJ3iIu9TDfo5SahPkcP-46" value="" style="html=1;rounded=0;" vertex="1" parent="1">
          <mxGeometry x="160" y="150" width="30" height="30" as="geometry" />
        </mxCell>
        <mxCell id="NYJ3iIu9TDfo5SahPkcP-47" value="" style="endArrow=none;html=1;rounded=0;align=center;verticalAlign=top;endFill=0;labelBackgroundColor=none;endSize=2;" edge="1" source="NYJ3iIu9TDfo5SahPkcP-46" target="NYJ3iIu9TDfo5SahPkcP-48" parent="1">
          <mxGeometry relative="1" as="geometry" />
        </mxCell>
        <mxCell id="NYJ3iIu9TDfo5SahPkcP-48" value="" style="ellipse;html=1;fontSize=11;align=center;fillColor=none;points=[];aspect=fixed;resizable=0;verticalAlign=bottom;labelPosition=center;verticalLabelPosition=top;flipH=1;" vertex="1" parent="1">
          <mxGeometry x="171" y="210" width="8" height="8" as="geometry" />
        </mxCell>
        <mxCell id="NYJ3iIu9TDfo5SahPkcP-49" value="wan" style="ellipse;shape=cloud;whiteSpace=wrap;html=1;" vertex="1" parent="1">
          <mxGeometry x="190" y="280" width="120" height="80" as="geometry" />
        </mxCell>
        <mxCell id="NYJ3iIu9TDfo5SahPkcP-50" value="NB" style="fontColor=#0066CC;verticalAlign=top;verticalLabelPosition=bottom;labelPosition=center;align=center;html=1;outlineConnect=0;fillColor=#CCCCCC;strokeColor=#6881B3;gradientColor=none;gradientDirection=north;strokeWidth=2;shape=mxgraph.networks.monitor;" vertex="1" parent="1">
          <mxGeometry x="110" y="413" width="80" height="65" as="geometry" />
        </mxCell>
        <mxCell id="NYJ3iIu9TDfo5SahPkcP-52" value="QNAP" style="sketch=0;pointerEvents=1;shadow=0;dashed=0;html=1;strokeColor=none;fillColor=#505050;labelPosition=center;verticalLabelPosition=bottom;verticalAlign=top;outlineConnect=0;align=center;shape=mxgraph.office.concepts.list_library;" vertex="1" parent="1">
          <mxGeometry x="264" y="450" width="96" height="70" as="geometry" />
        </mxCell>
      </root>
    </mxGraphModel>
  </diagram>
</mxfile>
